<?xml version="1.0" encoding="UTF-8" standalone="no"?>
<?xml-stylesheet type="text/css" href="svg.css"?><svg
   version="1.1"
   id="Layer_1"
   x="0px"
   y="0px"
   viewBox="0 0 1920 1080"
   enable-background="new 0 0 1920 1080"
   xml:space="preserve"
   sodipodi:docname="background.svg"
   inkscape:version="1.1.1 (3bf5ae0d25, 2021-09-20)"
   xmlns:inkscape="http://www.inkscape.org/namespaces/inkscape"
   xmlns:sodipodi="http://sodipodi.sourceforge.net/DTD/sodipodi-0.dtd"
   xmlns:xlink="http://www.w3.org/1999/xlink"
   xmlns="http://www.w3.org/2000/svg"
   xmlns:svg="http://www.w3.org/2000/svg">
   <defs
   id="defs243"><linearGradient
     inkscape:collect="always"
     id="linearGradient4504"><stop
       style="stop-color:#7a3673;stop-opacity:1;"
       offset="0"
       id="stop4500" /><stop
       style="stop-color:#7a3673;stop-opacity:0;"
       offset="1"
       id="stop4502" /></linearGradient><linearGradient
     inkscape:collect="always"
     xlink:href="#linearGradient4504"
     id="linearGradient4506"
     x1="660.71145"
     y1="862.29815"
     x2="788.51623"
     y2="862.29815"
     gradientUnits="userSpaceOnUse"
     gradientTransform="translate(271.80869,358.55823)" /><filter
     inkscape:collect="always"
     style="color-interpolation-filters:sRGB"
     id="filter4508"
     x="-0.036845663"
     y="-0.36720355"
     width="1.0755383"
     height="1.734381"><feGaussianBlur
       inkscape:collect="always"
       stdDeviation="1.8694497"
       id="feGaussianBlur4510" /></filter></defs>
   <sodipodi:namedview
   id="namedview241"
   pagecolor="#ffffff"
   bordercolor="#666666"
   borderopacity="1.0"
   inkscape:pageshadow="2"
   inkscape:pageopacity="0.0"
   inkscape:pagecheckerboard="0"
   showgrid="false"
   inkscape:zoom="0.94316065"
   inkscape:cx="859.87472"
   inkscape:cy="933.56312"
   inkscape:window-width="1920"
   inkscape:window-height="1051"
   inkscape:window-x="-9"
   inkscape:window-y="-9"
   inkscape:window-maximized="1"
   inkscape:current-layer="g5509" />
   <style
   id="style4">
      #path8-3 {
         animation-name: move;
         animation-duration: 150s;
         animation-iteration-count: infinite;
         animation-timing-function: linear;
         opacity: 0.9;
       }
       @keyframes move {
         from {
           transform: translateX(-100px);
         }
         to {
           transform: translateX(150vw);
         }
       }
       #path66 {
         animation-name: fall;
         animation-duration: 5s;
         animation-timing-function: linear;
         animation-delay: 2.5s;
         animation-iteration-count: infinite;
       }
       #path12 {
         animation-name: fall;
         animation-duration: 5s;
         animation-timing-function: linear;
         animation-delay: 2s;
         animation-iteration-count: infinite;
       }
       #path60 {
         animation-name: fall;
         animation-duration: 5s;
         animation-timing-function: linear;
         animation-delay: 2s;
         animation-iteration-count: infinite;
       }
       #path58 {
         animation-name: fall;
         animation-duration: 3s;
         animation-timing-function: linear;
         animation-delay: 4s;
         animation-iteration-count: infinite;
       }
       #path24 {
         animation-name: fall;
         animation-duration: 5s;
         animation-timing-function: linear;
         animation-delay: 1s;
         animation-iteration-count: infinite;
       }
       #path50 {
         animation-name: fall;
         animation-duration: 5s;
         animation-timing-function: linear;
         animation-delay: 1s;
         animation-iteration-count: infinite;
       }
       #path62 {
         animation-name: fall;
         animation-duration: 5s;
         animation-timing-function: linear;
         animation-delay: 1s;
         animation-iteration-count: infinite;
       }
       @keyframes fall {
         from {
           fill: yellow;
         }
         50% {
            fill: white;
         }
         to {
           fill: yellow;
         }
       }
      #path16 {
         animation-name: fall-star-first;
         animation-duration: 2s;
         animation-timing-function: linear;
         animation-delay: 2s;
         opacity: 0;
      }
      @keyframes fall-star-first {
         from {
            opacity: 1;
            transform: translate(-100px, -150px);
         }
         to {
            transform: translate(100px, 150px);
         }
      }
      #path42 {
         animation-name: fall-star-second;
         animation-duration: 25s;
         animation-timing-function: linear;
         animation-delay: 8s;
         opacity: 0;
         animation-iteration-count: infinite;
      }
      @keyframes fall-star-second {
         from {
            opacity: 1;
            transform: translate(100px, -20px);
         }
         5% {
            transform: translate(-140px, 150px);
            opacity: 0;
         }
         to {
            opacity: 0;
         }
      }

      #g5509 {
         animation-name: float;
         animation-duration: 100s;
         animation-timing-function: linear;
      }
      @keyframes float {
         to {
            transform: translate(700px, -300px);
         }
      }
   </style>
   <g
   id="g238">
      <path
   fill="#5f225d"
   stroke="#5f225d"
   stroke-width="0.5"
   d="m 1502.08,630.37 c 5.32,-0.8 10.51,-2.57 15.94,-2.52 -2.72,9.06 -7.88,17.15 -10.83,26.13 23.21,-5.94 46.33,-12.24 69.5,-18.35 5.26,-1.21 10.42,-3.88 15.96,-3.11 50.32,7.09 100.7,13.83 151.03,20.87 12.19,1.4 24.31,3.73 36.57,4.42 15.03,3.12 29.84,7.16 44.78,10.64 0.75,0.16 1.53,0.32 2.34,0.48 1.52,0.5 3.04,1.06 4.59,1.62 -4.49,4.51 -9.39,8.66 -13.25,13.74 4.47,-1.06 8.72,-2.87 13.14,-4.14 -6.67,6.75 -13.92,12.95 -20.08,20.17 6.99,-1.35 13.22,-5.16 20.26,-6.34 -7.33,7.22 -14.79,14.32 -21.85,21.82 5.66,-1.73 11.11,-4.09 16.8,-5.75 -6.2,7.45 -14.22,13.2 -20.12,20.9 12.89,-3.97 25.23,-9.61 38.2,-13.31 0.28,3.67 0.28,7.36 0.19,11.05 -16.19,7.64 -31.02,17.81 -45.99,27.54 -20.65,13.84 -40.62,28.64 -60.67,43.33 -3.33,-0.41 -6.67,-0.39 -9.98,-0.04 -3.78,-4.87 -8.31,-9.14 -11.65,-14.33 4.78,1.95 9.2,4.75 14.2,6.21 -3,-4.84 -7.16,-8.78 -10.41,-13.43 1.78,0.37 3.57,0.74 5.38,1.12 -2.61,-3.69 -5.74,-6.97 -8.47,-10.55 0.59,-0.26 1.77,-0.77 2.36,-1.03 -4.36,-6.46 -8.9,-12.85 -13.97,-18.77 -6.03,6.03 -11.64,12.48 -17.19,18.96 1.82,0.05 3.65,0.11 5.51,0.19 -3.32,4.4 -7.63,7.86 -11.3,11.94 3.34,-0.82 6.58,-2.01 9.92,-2.88 -4,5.31 -10.11,8.75 -13.55,14.47 4.46,-1 8.61,-3.07 13.14,-3.87 -3.24,4.41 -7.42,8 -11.25,11.87 -60.1,-0.36 -120.21,-0.05 -180.31,-0.16 -10.52,0.19 -21.06,-0.37 -31.55,0.31 -16.13,-9.69 -33.42,-17.72 -51.75,-22.16 -3.19,-0.82 -6.46,-1.23 -9.71,-1.59 -8.34,-1.19 -16.78,-0.33 -25.14,-1.15 2.93,-2.63 6.5,-4.3 10.22,-5.51 -5.99,-0.7 -11.81,1.49 -16.15,5.56 3.02,-7.75 10.4,-12.65 18.27,-14.48 -7.9,-1.87 -15.38,2.1 -22.07,5.78 0.14,-4.68 2.74,-8.61 6.64,-11.08 -4.04,0.63 -7.12,3.32 -9.72,6.29 -2.11,-2.79 -4.28,-6.03 -8.05,-6.47 2.78,3.37 5.16,7.31 4.42,11.91 -6.8,-4.24 -14.52,-8.07 -22.79,-6.56 7.23,2.19 14.94,5.99 17.55,13.67 -4.58,-3.68 -10.38,-5.3 -16.2,-4.46 4.01,0.78 8.16,2.11 10.75,5.5 -0.93,0.08 -2.8,0.25 -3.74,0.33 1.48,1.34 2.85,2.81 4.1,4.4 -11.15,2.42 -22.26,5.05 -33.21,8.28 -5.06,1.42 -10.02,3.2 -15.15,4.32 -0.39,-6.2 -0.19,-12.42 -0.06,-18.62 6.53,1.65 11.97,6.04 18.52,7.68 -2.44,-3.99 -5.81,-7.29 -8.36,-11.19 2.15,0.7 4.3,1.43 6.47,2.15 -2.91,-4.4 -6.72,-8.09 -9.58,-12.52 3.17,1.26 6.34,2.57 9.61,3.6 -2.05,-3.38 -4.85,-6.21 -6.98,-9.53 1.25,0.26 2.52,0.53 3.8,0.81 -1.59,-2.3 -3.47,-4.37 -5.04,-6.66 -0.9,-1.88 -0.62,-4.21 -2.08,-5.83 -2.94,-3.86 -5.57,-7.96 -8.88,-11.51 -4.36,4.75 -8.69,9.53 -13.03,14.31 1.32,0.26 2.65,0.53 4,0.82 -2.43,2.84 -5.07,5.49 -7.53,8.31 1.85,-0.32 3.72,-0.65 5.6,-0.95 -3.18,3.85 -7.06,7.04 -10.23,10.91 4.07,-1.08 8.01,-2.58 12.03,-3.85 -4.14,4.16 -8.85,7.81 -12.24,12.65 2.78,-0.87 5.55,-1.81 8.35,-2.67 -3.18,4.06 -7.26,7.29 -10.46,11.33 7.63,-1.55 14.58,-5.25 22.04,-7.38 0.11,6.58 0.06,13.16 -0.01,19.74 -5.7,1.93 -11.41,3.8 -17.06,5.87 -9.87,-0.71 -19.78,-0.2 -29.66,-0.35 -132.54,-0.03 -265.07,0.04 -397.61,-0.03 -0.38,-4.43 -2.34,-8.43 -3.72,-12.57 1.36,-2.94 3.97,-5.33 4.42,-8.67 0.88,-4.09 -0.9,-8.04 -2.34,-11.75 -1.69,-4.1 -3.2,-8.43 -6.14,-11.83 -2.7,-0.29 -5.33,0.79 -7.95,1.28 -2.3,-3.58 -0.15,-7.27 1.09,-10.73 -0.64,-4.08 -2.52,-7.97 -1.99,-12.2 3.61,-0.24 7.21,0.26 10.72,1.11 -0.52,-1.5 -0.98,-3.01 -1.37,-4.53 -3.54,-0.89 -7.09,-1.91 -10.17,-3.92 -0.46,3.5 -0.45,7.03 -0.73,10.55 -0.3,3.21 -2.41,5.86 -3.1,8.97 0.81,3.17 4.1,6.81 1.74,9.98 -2.76,0.52 -5.5,-0.82 -8.18,-1.31 0.13,2.06 0.26,4.12 0.42,6.19 -3.57,0.08 -7.14,0.06 -10.7,-0.1 -2.13,-4.2 -2.19,-9 -3.76,-13.35 -3.32,-1.96 -7.53,-1.97 -11.15,-3.35 0.65,-1.68 1.78,-3.47 0.84,-5.27 -1.88,-5.28 -4.07,-10.75 -3.15,-16.47 3.98,0.01 7.97,-0.05 11.95,-0.42 -1.15,-0.64 -2.3,-1.26 -3.43,-1.87 1.05,-0.54 2.1,-1.07 3.17,-1.59 -4.2,-0.81 -8.43,-1.43 -12.67,-1.92 -0.17,4.5 0.47,9.18 -1.06,13.52 -1.36,3.9 -2.64,7.83 -3.8,11.81 -4.37,-1.22 -8.69,-2.62 -13.1,-3.67 4.18,9.36 5.62,20.07 2.43,29.97 -3.41,-2.12 -6.11,-5.13 -9.4,-7.4 -1.97,-1.32 -3.57,-3.11 -4.37,-5.35 2.6,-0.38 5.21,-0.78 7.81,-1.25 -0.35,-0.57 -0.7,-1.14 -1.04,-1.69 0.31,-0.34 0.93,-1 1.23,-1.33 -3.12,-0.61 -6.29,-0.9 -9.45,-0.94 -0.28,4.6 -1.06,9.24 -3.25,13.36 -3.34,-4.78 -6.83,-9.5 -11.1,-13.5 2.27,9.17 7.63,17.5 8.69,26.99 -1.33,7.94 -3.20794,14.59272 -4.59794,22.53272 -2.37,-1.02919 -5.20445,-0.1895 -7.54445,-0.28523 -1.66,0.22 -2.23761,0.0325 -2.82761,-1.06749 0.9,-0.84 1.83,-1.65 2.75,-2.47 -0.34,-1.17 -0.68,-2.32 -1,-3.47 2.1,-3.89 3.71,-8.84 0.94,-12.84 -2.56,-3.14 -5.37,-6.09 -7.36,-9.65 -2.19,6.53 1.74,13.56 -0.18,20.23 -0.91,2.67 0.14,5.35 0.97,7.89 -1.59,-0.32 -3.17,-0.62 -4.74,-0.9 0.44,-2.45 2.89,-5.51 0.65,-7.66 -1.89,-2.27 -6.83,-0.52 -5.99,2.65 -0.66,4.64 4.3,6.27 7.46,8.23 -57.43,0.2 -114.85,0.03 -172.28,0.09 -7.11,0.08 -14.23,-0.21 -21.34,0.24 -15.34,-9.45 -30.88,-18.6 -46.32,-27.9 -5.55,-3.45 -11.49,-6.21 -17.09,-9.59 -2.22,-1.92 -4.58,-3.67 -7.2,-5.01 -28.89,-15.88 -56.9,-33.27 -85.61,-49.48 -10.32,-7.48 -22.14,-12.53 -34.04,-16.91 -10.66,-3.7 -21.41,-7.19 -32.44,-9.61 -4.82,-1.07 -9.41,-2.98 -14.25,-3.98 -0.23,-0.25 -0.68,-0.75 -0.9,-1.01 15.95,-7.12 31.91,-14.22 47.99,-21.06 3.74,-0.21 7.5,-0.41 11.2,-1.08 14.68,-2.39 29.46,-4.16 44.14,-6.61 4.53,-0.81 9.06,0.45 13.51,1.21 12.75,2.49 25.63,4.23 38.4,6.68 11.75,1.77 23.34,4.58 35.19,5.68 16.28,4.74 32.7,10.4 49.83,10.67 17.17,-1.21 33.54,-7.13 49.72,-12.65 5.23,-0.07 10.41,-0.75 15.6,-1.39 16.02,-1.59 32.01,-3.5 48.04,-5 2.87,-0.73 4.77,1.83 6.64,3.54 7.32,6.87 14.37,14.03 21.68,20.92 -0.91,-6.96 -2.52,-13.98 -1.72,-21.03 0.19,-2.59 2.62,-4.46 5.09,-4.65 4.07,-0.34 8.13,0.49 12.05,1.55 17.81,5.27 34.36,13.85 50.91,22.13 4.66,2.49 9.03,5.65 14.22,6.99 32.99,20.83 66.24,41.95 102.84,55.92 13.34,4.6 27.7,9.6 41.93,6.27 13.68,-3.11 26.53,-8.98 39.15,-14.97 1.88,0.31 3.83,0.34 5.67,-0.29 19.14,-5.75 40.05,-6.97 59.31,-1.05 12.82,2.59 25.83,4.22 38.76,6.21 10.68,1.52 21.32,3.36 32.02,4.76 -9.64,-6.64 -20.83,-10.75 -30.26,-17.64 6.49,-0.47 12.86,1.22 19.31,1.7 12.7,1.09 25.29,3.11 37.99,4.24 4.49,0.37 9.18,1.63 13.53,-0.19 1.27,0.41 2.56,0.83 3.84,1.31 1.18,0.98 2.41,2.02 3.99,2.38 7.55,2.34 15.46,2.98 23.24,4.18 7.76,1.14 15.57,2.54 23.46,2.15 10.43,-0.49 20.72,-2.59 30.84,-5.08 34.91,-8.78 68.34,-22.46 101.33,-36.66 37.1,-16.08 73.31,-34.1 109.45,-52.22 1.72,-0.13 3.47,-0.17 5.23,-0.38 21.37,-4.12 42.75,-8.23 64.16,-12.19 z"
   id="path96"
   sodipodi:nodetypes="ccccccccccccccccccccccccccccccccccccccccccccccccccccccccccccccccccccccccccccccccccccccccccccccccccccccccccccccccccccccccccccccccccccccccccccccccccccccccccccccccccccccccccccccccccc" /><path
   fill="#a5539d"
   stroke="#a5539d"
   stroke-width="0.5"
   d="m 654.80915,855.51043 c 31.81,-0.96 63.59,-2.67 95.4,-3.61 0.87,0.01 2.6,0.02 3.47,0.03 1.91,1.7 5,2.99 5.06,5.94 0.47,5.68 0.16,11.4 -0.19,17.09 -0.1,3.66 -2.38,6.68 -3.65,9.98 -2.43,5.91 -3.05,12.32 -4.39,18.53 -2.84,1 -5.71,1.94 -8.62,2.74 -32.2,-15.25 -63.62,-32.08 -94.56,-49.74 2.47,-0.47 4.96,-0.86 7.48,-0.96 z"
   id="path198" /><path
   fill="#a5539d"
   stroke="#a5539d"
   stroke-width="0.5"
   d="m 1469.47,799.57 c 10.49,-0.68 21.03,-0.12 31.55,-0.31 60.1,0.11 120.21,-0.2 180.31,0.16 -1.34,1.26 -2.6,2.59 -3.81,3.96 4.25,-1.2 8.37,-2.85 12.58,-4.21 -5.11,5.42 -10.69,10.39 -15.6,16 9.92,-3.17 19.59,-7.05 29.43,-10.45 0.06,7.07 -0.02,14.15 0.06,21.23 -9,7.57 -19,13.71 -28.97,19.87 -17.69,10.28 -36.49,19.81 -56.98,22.69 -10.29,1.6 -20.73,-0.02 -30.65,-2.85 -9.69,-3.07 -18.73,-7.8 -27.78,-12.35 -16.92,-8.82 -33.5,-18.27 -49.95,-27.94 -5.38,-3.27 -11.01,-6.16 -16.09,-9.89 -7.74,-5.74 -15.76,-11.1 -24.1,-15.91 z"
   id="path166" /><rect
   style="fill:#a5539d;fill-opacity:1;stroke-width:1.12843"
   id="rect1044"
   width="210.11174"
   height="157.68433"
   x="719.09613"
   y="798.81421" /><path
   fill="#a5539d"
   stroke="#a5539d"
   stroke-width="0.5"
   d="m 551.65,799.51 c 7.11,-0.45 14.23,-0.16 21.34,-0.24 57.43,-0.06 114.85,0.11 172.28,-0.09 0.66,0.02 1.99,0.05 2.66,0.07 1.1,7.44 2.35,15.11 6.12,21.74 1.08,1.79 1.67,3.81 1.74,5.91 0.39,5.99 1,12.09 -0.07,18.04 -1.15,1.58 -3.07,2.38 -4.56,3.61 -35.4,-1.23 -70.76,-3.55 -106.16,-5.04 -6.79,-0.25 -13.58,-1.22 -20.38,-0.67 -24.52,-14.11 -48.64,-28.89 -72.97,-43.33 z"
   id="path142" /><path
   fill="#a5539d"
   stroke="#a5539d"
   stroke-width="0.5"
   d="m 859.35,799.24 c 132.54,0.07 265.07,0 397.61,0.03 9.88,0.15 19.79,-0.36 29.66,0.35 -9.75,3.46 -19.41,7.15 -29.03,10.94 -74.79,29.66 -146.74,65.94 -221.41,95.88 -34.3,13.55 -69.16,26.15 -105.33,33.71 -24.05,4.94 -48.91,7.43 -73.33,3.72 0.97,-6.13 5.17,-11.48 4.75,-17.85 -0.16,-3.96 -2.73,-7.13 -4.83,-10.26 2.57,-5.87 4.54,-12.32 3.54,-18.78 -0.74,-3.42 -2.31,-6.58 -3.21,-9.95 6.48,0.69 12.74,2.55 19.15,3.67 11.1,1.96 22.15,4.26 33.07,7.06 -0.15,-1.13 -0.78,-1.76 -1.89,-1.88 -10.6,-2.38 -21.13,-5.06 -31.81,-7.09 1.01,-1.28 2.02,-2.57 3.04,-3.84 -2.6,-2.28 -5.11,-4.78 -6.13,-8.19 -1.04,-3.67 -4.52,-5.41 -7.22,-7.68 -1.29,-2.53 -1.49,-5.52 -3.11,-7.9 -2.95,-4.52 -7.63,-7.89 -12.88,-9.14 -2.89,-0.71 -5.82,-1.4 -8.41,-2.9 3.89,-0.7 7.9,-1.3 11.44,-3.16 5.56,-2.84 9.74,-8.35 10.59,-14.58 3.53,-1.96 7.13,-4.47 8.21,-8.61 0.56,-2.92 3.08,-4.48 5.49,-5.77 -0.48,-1.1 -0.94,-2.2 -1.39,-3.28 -0.79,-0.13 -2.36,-0.4 -3.14,-0.53 11.02,-2.86 22.2,-5.09 33.33,-7.49 1.03,-0.2 1.84,-0.76 2.43,-1.66 -10.21,1.87 -20.29,4.43 -30.55,6.04 -7.49,1.14 -14.81,3.25 -22.35,4.08 1.85,-4.8 4.08,-9.67 3.71,-14.94 z"
   id="path164" /><path
   fill="#7a3673"
   stroke="#7a3673"
   stroke-width="0.648002"
   d="m 618.52348,840.11472 c 7.39716,-0.84938 14.78356,0.64855 22.16996,1.03434 38.50897,2.30078 76.97444,5.88285 115.48356,7.78204 -0.64188,1.21958 -1.26192,2.48578 -1.84925,3.78268 -34.60378,1.45137 -69.17497,4.0916 -103.7786,5.57408 -2.74145,0.15415 -5.45002,0.75657 -8.13707,1.48214 -7.98464,-6.51565 -16.06716,-12.78434 -23.8886,-19.65528 z"
   id="path194"
   style="fill:#a5539d;fill-opacity:1;stroke:none" /><rect
   style="fill:#5f225d;fill-opacity:1;stroke-width:1.07583"
   id="rect1886"
   width="272.93335"
   height="90.615654"
   x="689.39429"
   y="708.328" /><path
   fill="#7f486e"
   stroke="#7f486e"
   stroke-width="0.5"
   d="m 0,0 h 1920 v 521.75 l -0.9,1.04 c -0.34,-173.91 0,-347.82 -0.17,-521.73 C 1279.65,1.01 640.36,1.02 1.08,1.05 c -0.11,24.99 0,49.98 -0.05,74.97 -0.05,1.38 -0.14,2.75 -0.26,4.13 -0.25,2.62 -0.36,5.26 -0.33,7.9 0.13,22.71 -0.1,45.44 0.12,68.15 L 0,155.2 Z"
   id="path2" />
      <path
   fill="#e69acb"
   stroke="#e69acb"
   stroke-width="0.5"
   d="m 1.08,1.05 c 639.28,-0.03 1278.57,-0.04 1917.85,0.01 0.17,173.91 -0.17,347.82 0.17,521.73 -5.63,4.64 -12.07,8.16 -18.04,12.32 -12.05,8.22 -24.52,15.85 -36.35,24.36 -4.48,-5.4 -7.8,-11.63 -11.81,-17.36 -11.36,-17.1 -22.36,-34.45 -33.83,-51.48 -11.53,13.01 -22.42,26.59 -33.68,39.84 -29.8,35.51 -59.59,71.03 -89.38,106.55 -1.31,-0.36 -2.58,-0.73 -3.84,-1.1 -26.84,-21.9 -54.33,-43.02 -81.34,-64.71 -2.33,-2.06 -3.95,-4.72 -5.69,-7.23 -18.03,-25.71 -36.23,-51.31 -54.19,-77.07 23.67,-0.6 47.37,-0.07 71.05,-0.27 37.37,0.04 74.74,0 112.11,0.02 -1.2,-5.29 -5.66,-8.9 -9.77,-12.01 -8.49,-6.5 -19.01,-9.64 -29.43,-11.31 -10.94,-1.24 -22.2,-1.18 -32.89,1.68 -1.86,0.45 -3.75,0.75 -5.61,1.04 -2.51,-17.19 -14.8,-31.66 -29.79,-39.71 -16.67,-8.87 -36.91,-10.27 -54.79,-4.38 -2.74,0.96 -5.46,1.98 -8.21,2.9 -3.29,-16.07 -11.66,-30.85 -22.91,-42.68 -14.72,-14.98 -34.83,-24.5 -55.73,-26.49 -18.78,-1.56 -37.92,1.66 -55.33,8.82 -13.86,5.61 -26.61,14.47 -35.7,26.44 -2.32,2.78 -3.92,6.07 -6.24,8.84 -1.2,0.42 -2.33,-0.69 -3.41,-1 -9.15,-4.69 -19.16,-7.63 -29.41,-8.44 -19.13,-1.23 -38.89,-0.49 -56.97,6.51 -15.76,5.68 -30.09,15.36 -41.1,28 -9.24,11.16 -15.5,24.83 -17.32,39.25 -3.8,-1.95 -6.95,-4.95 -10.82,-6.77 -16.71,-8.01 -38.74,-5.04 -51.52,8.8 -5.6,5.38 -9.34,12.73 -10.17,20.47 53.66,0.07 107.32,0.03 160.98,0.02 6.14,0.11 12.33,-0.4 18.44,0.53 -28.6,25.95 -58.12,50.93 -88.89,74.29 -27.77,20.89 -56.48,40.79 -87.47,56.64 -17.03,8.58 -34.87,16.05 -53.74,19.37 -8.59,1.3 -17.53,2.17 -26.05,0.05 -9.01,-2.92 -15.72,-10 -22.15,-16.61 -9.01,-9.85 -16.77,-20.76 -24.15,-31.86 41.05,-0.56 82.11,-0.02 123.16,-0.29 -1.25,-3.96 -4.36,-6.82 -7.29,-9.58 -6.01,-5.61 -13.7,-9.05 -21.47,-11.48 -13.51,-3.71 -28,-4.22 -41.68,-1.07 -2.4,0.37 -4.88,1.81 -7.27,1.21 -1.91,-7.48 -4.6,-14.8 -9.18,-21.09 -8.57,-12.05 -21.81,-20.52 -36.1,-24.05 -15.81,-4.28 -32.78,-2.15 -47.71,4.25 -3.47,-14.18 -9.59,-27.96 -19.64,-38.73 -4.44,-4.57 -8.78,-9.3 -13.92,-13.09 -12.2,-9.04 -26.71,-14.89 -41.75,-16.9 -19.85,-2.55 -40.13,1 -58.68,8.22 -11.76,5.1 -23.06,11.9 -31.69,21.51 -17.38,-5.52 -34.53,-11.75 -52,-16.98 -1.88,-0.7 -3.84,-0.04 -5.7,0.34 -42.86,10.6 -85.94,20.26 -129.15,29.32 -46.52,9.53 -93.19,18.46 -140.26,24.81 -18.66,2.56 -37.56,3.15 -56.37,2.55 -0.91,-11.45 -6.89,-22.36 -16.2,-29.11 -9.32,-7.57 -22.99,-8.9 -33.75,-3.67 -5.1,1.68 -8.51,5.99 -12.92,8.79 -2.25,-26.43 -16.93,-51.7 -39.3,-66.1 -12.93,-8.78 -28.48,-13.5 -44.08,-13.86 -7.48,-0.02 -15.02,-0.1 -22.37,1.5 -8.34,1.15 -15.44,5.97 -22.69,9.88 -4.42,-9.97 -10.45,-19.41 -18.77,-26.57 -13.57,-12.23 -31.16,-19.56 -49.24,-21.62 -11.96,-0.97 -24.41,0.14 -35.32,5.44 -14.3,6.19 -26.16,17.36 -34.36,30.5 -7.67,11.6 -12.49,24.95 -14.9,38.61 -3.15,-1.04 -6.01,-2.77 -9.08,-4 -7.95,-2.8 -16.55,-3.47 -24.88,-2.38 -11,1.67 -21.15,7.25 -29.18,14.84 -4.75,5.07 -8.59,10.95 -11.8,17.1 -3.16,6.02 -4.15,12.82 -5.69,19.37 -7,-2.75 -14.38,-4.03 -21.86,-4.52 0.39,-38.08 0.05,-76.16 0.17,-114.24 0,-73.65 0,-147.31 0,-220.97 -0.07,-3.59 0.33,-7.25 -0.48,-10.79 2.14,-0.26 4.28,-0.46 6.43,-0.47 107.71,-0.01 215.42,0.02 323.13,-0.03 -1.09,-5.63 -5.95,-9.42 -10.58,-12.25 -6.62,-3.69 -14.14,-5.46 -21.58,-6.64 -5.77,-0.97 -11.99,0.3 -17.38,-2.51 -6.81,-3.41 -12.52,-8.6 -18.74,-12.92 6.01,-0.79 12.09,-0.22 18.14,-0.38 84,0.02 168.01,0 252.02,-0.01 13.05,-0.1 26.12,0.28 39.16,-0.27 -4.88,-4.12 -11.15,-5.94 -17.22,-7.51 -19.65,-4.55 -40.08,-4.18 -60.01,-2.09 -2.94,-2.73 -4.88,-6.47 -8.33,-8.7 -9.57,-6.78 -21.3,-9.46 -32.64,-11.62 -15.86,-2.25 -32.1,-2.31 -47.88,0.64 -1.85,0.07 -4.61,1.41 -5.66,-0.77 -5.13,-8.58 -13.84,-14.3 -22.73,-18.42 -15.81,-7.53 -33.34,-10.37 -50.65,-11.87 -8.01,-0.66 -16.06,-0.07 -24.07,-0.66 -3.93,0.02 -6.11,-3.69 -8.91,-5.83 C 284.78,47.27 274.83,43.06 264.65,40.35 240.83,34.24 215.26,34.53 191.73,41.82 177.8,46.29 163.48,54.25 157.35,68.26 141.08,55.71 120.26,50.47 99.98,50.04 77.83,49.66 54.84,55.29 37.36,69.38 33.92,71.96 31.63,75.65 28.65,78.67 19.53,80.56 10.04,79.63 0.77,80.15 0.89,78.77 0.98,77.4 1.03,76.02 1.08,51.03 0.97,26.04 1.08,1.05 M 144.26,13.4 c -1.46,0.92 -1.28,3.01 -1.01,4.49 1.29,2.89 6.13,2.27 6.5,-0.93 0.85,-3.08 -3.05,-5.45 -5.49,-3.56 m 1589.39,6.19 c -8.71,2.54 -16.58,7.6 -22.67,14.29 -1.17,1.55 -3.3,1.03 -4.94,1.25 -17.22,-0.2 -35.16,1.95 -50.38,10.54 -6.12,3.75 -12.73,8.07 -15.22,15.17 -4.89,-0.16 -9.57,-1.93 -14.48,-1.89 -15.08,-0.59 -31.46,0.74 -44.05,9.92 -2.74,1.68 -3.87,4.81 -5.93,7.11 -3.68,0.52 -7.3,-0.53 -10.95,-0.76 -9.6,-0.47 -19.3,0.1 -28.68,2.23 -4.69,1.5 -10.01,2.45 -13.42,6.33 7.33,0.54 14.7,0.23 22.06,0.33 112.65,-0.01 225.31,-0.01 337.96,-0.01 10.62,-0.19 21.27,0.41 31.87,-0.3 -1.61,-3.17 -4.03,-5.86 -7.27,-7.41 -7.34,-4.65 -16.3,-4.04 -24.54,-5.37 -7.78,-2.64 -13.31,-9.81 -21.53,-11.49 -1.89,-6.78 -9.08,-9.67 -15.45,-10.46 -12.22,-2.06 -24.63,-0.78 -36.93,-1.15 -0.61,-2.73 -0.95,-5.52 -1.79,-8.18 -2.89,-6.71 -8.58,-11.75 -14.87,-15.24 -17.82,-9.67 -39.56,-10.64 -58.79,-4.91 m 117.74,7.78 c -1.64,0.82 -2.49,2.98 -1.64,4.64 0.95,2.66 5.47,2.7 6.4,-0.06 1.59,-2.76 -2.02,-6.16 -4.76,-4.58 m -926.03,3.08 c -3.89,0.32 -6.33,5.13 -4.43,8.49 1.89,4.23 8.93,4.1 10.54,-0.33 1.98,-3.99 -1.75,-8.91 -6.11,-8.16 m 190.07,3.1 c -1.45,1.31 -1.6,3.71 -0.17,5.09 1.67,2.13 5.42,1.05 5.94,-1.55 1.09,-3.22 -3.39,-5.74 -5.77,-3.54 m 243.78,-0.39 c -4.21,2.32 0.07,8.83 3.82,5.94 3.76,-2.29 -0.16,-8.31 -3.82,-5.94 m -633.08,3.13 c -3.39,0.81 -2.81,6.83 0.84,6.65 2.27,0.61 4.2,-1.73 3.81,-3.89 -0.05,-2.18 -2.74,-3.57 -4.65,-2.76 m -303.9,4.9 c -1.53,1.07 -2.78,3.26 -1.55,5 1.22,2.39 5.28,2.45 6.2,-0.22 1.73,-2.9 -1.78,-6 -4.65,-4.78 m 1040.14,3.2 c -4.39,0.19 -6.67,5.85 -4.08,9.21 2.23,3.42 8,3.12 9.84,-0.56 2.37,-3.87 -1.19,-9.52 -5.76,-8.65 m -258.11,11.84 c -2.25,1.19 -2.09,5.24 0.35,6.16 2.1,1.12 5.08,-0.48 4.94,-2.97 0.59,-2.75 -3.14,-4.69 -5.29,-3.19 m -21.2,23.81 c -3.54,2.77 -5.86,8.44 -11.08,7.93 -6.45,0.18 -12.95,-0.44 -19.34,0.6 -6.35,0.99 -12.7,2.15 -18.78,4.28 -9.74,2.51 -18.77,7.99 -25.26,15.69 -1.6,1.79 -2.58,6.15 -5.7,4.7 -4.51,-1.42 -9.27,-1.26 -13.88,-2.02 -5.04,-0.81 -10.04,0.49 -15.04,0.85 -3.48,0.28 -6.98,0.69 -10.32,1.72 -6.3,2.22 -12.85,4.39 -17.93,8.91 -1.84,1.92 -2.74,4.57 -4.73,6.36 -14.8,-1.82 -30.21,-2.06 -44.61,2.45 -3.15,1.09 -6.41,2.51 -8.43,5.29 19.98,0.5 40,0.01 60,0.22 81.34,-0.06 162.69,0.01 244.04,-0.01 29.31,-0.16 58.66,0.34 87.96,-0.29 -0.63,-4.22 -4.52,-6.79 -8.06,-8.53 -7.61,-3.84 -16.37,-3.61 -24.59,-4.63 -5.25,-2.8 -9.84,-6.73 -14.95,-9.79 -1.98,-0.99 -5.01,-0.7 -5.81,-3.19 -1.18,-3.74 -5.02,-5.29 -8.23,-6.89 -7.02,-3.24 -14.9,-2.22 -22.31,-3.56 -6.02,-0.01 -12.12,-0.59 -18.04,0.74 -1.95,0.72 -4.11,-0.68 -3.94,-2.81 -1.19,-10.07 -8.98,-18.31 -18.18,-21.91 -6.68,-3.95 -14.38,-5.43 -21.9,-6.83 -6.62,-0.57 -13.3,-0.41 -19.93,-0.21 -10.92,1.37 -21.92,4.45 -30.96,10.93 m -423.45,1.55 c -4.45,1.11 -9.04,1.28 -13.59,1.57 -5.6,0.82 -11.03,2.89 -15.77,5.97 -2.48,1.56 -3.98,4.17 -6.25,5.94 -2.7,-0.08 -5.28,-1.05 -7.98,-1.11 -6.86,0.91 -14.12,1.08 -20.22,4.75 -1.22,1.19 -2.03,2.71 -3.12,4 -1.63,0.73 -3.42,-0.12 -5.08,-0.29 -3.88,-1 -7.77,0.32 -11.64,0.57 -3.58,0.23 -7.14,1.37 -9.99,3.59 3.52,1.99 7.35,0.46 11.08,0.43 56.33,0.01 112.66,0.05 169,0.03 5.3,-0.35 10.65,0.92 15.9,-0.33 -1.4,-1.83 -3.05,-3.52 -5.21,-4.43 -3.71,-2.16 -8.48,-0.33 -12.02,-2.91 -2.64,-1.79 -5.53,-3.14 -8.25,-4.79 -2.22,-2.28 -4.54,-4.75 -7.89,-5.17 -6.34,-0.91 -12.78,-0.19 -19.16,-0.56 -0.77,-6.07 -5.38,-11.17 -11.08,-13.14 -12.66,-4.81 -28.64,-3.93 -38.73,5.88 m -261.29,4.87 c -4.47,0.14 -4.1,7.54 0.37,7.11 4.62,-0.05 4.07,-7.39 -0.37,-7.11 m 1294.99,3.99 c -2.91,1.35 -1.68,6.68 1.65,6.41 2.62,0.36 4.81,-2.89 3.3,-5.13 -0.77,-1.93 -3.35,-2.13 -4.95,-1.28 m -271.99,2.85 c -3.95,1.08 -2.51,8.12 1.75,6.89 4.78,-0.59 2.84,-8.4 -1.75,-6.89 m -911.16,13.94 c -1.83,1.09 -2.44,3.87 -0.95,5.47 1.73,2.14 5.92,1.29 6.09,-1.74 0.64,-2.97 -2.6,-4.87 -5.14,-3.73 m 37.22,46.2 c -2.36,0.01 -3.89,2.93 -2.83,4.94 0.95,2.76 5.8,2.5 6.49,-0.38 1.09,-2.23 -1.33,-4.95 -3.66,-4.56 m -292.18,3.71 c -3.86,1.93 -0.7,8.45 3.21,6.29 4.07,-1.82 0.87,-8.78 -3.21,-6.29 m 115.05,7.22 c -0.93,1.33 -1.41,3.23 -0.38,4.66 1.32,2.5 5.82,1.83 6.3,-1 1.1,-3.36 -3.36,-5.8 -5.92,-3.66 m 581.13,5.99 c -4.25,0.97 -2.64,8.06 1.7,6.84 4.57,-0.7 2.83,-8.41 -1.7,-6.84 m -847.02,18.12 c -3.25,1.95 -1.34,7.73 2.65,6.45 4.95,-0.97 1.86,-8.99 -2.65,-6.45 m 1147.93,2.98 c -4.46,0.15 -4.07,7.46 0.43,7.06 4.54,-0.03 4.15,-7.66 -0.43,-7.06 m 240.08,6.96 c -2.83,0.92 -3.87,4.83 -1.84,7.02 2.14,3.02 7.84,1.39 7.75,-2.46 0.66,-3.2 -3.06,-5.76 -5.91,-4.56 M 112.32,222.38 c -3.8,1.74 -4.27,7.72 -0.72,9.96 3.1,2.4 8.33,0.61 9.02,-3.34 1.5,-4.66 -4.11,-8.99 -8.3,-6.62 m 1631.06,13.07 c 1.57,1.08 3.89,2.02 5.53,0.47 2.53,-2.06 0.43,-7.26 -2.99,-6.04 -2.86,0.2 -2.84,3.45 -2.54,5.57 m 110.92,-5.09 c -2.18,1.34 -1.96,4.85 0.32,5.99 2.19,1.44 5.52,-0.69 5.16,-3.28 0.13,-2.76 -3.39,-4.26 -5.48,-2.71 M 811.15,254.18 c -1.89,1.01 -2.63,4.06 -0.82,5.54 1.57,2.09 5.6,1.06 5.86,-1.62 0.96,-2.82 -2.64,-5.38 -5.04,-3.92 z"
   id="path4" />
      <path
   fill="#fffdff"
   stroke="#fffdff"
   stroke-width="0.5"
   d="m 144.26,13.4 c 2.44,-1.89 6.34,0.48 5.49,3.56 -0.37,3.2 -5.21,3.82 -6.5,0.93 -0.27,-1.48 -0.45,-3.57 1.01,-4.49 z"
   id="path6" />
      <path
   fill="#ebafd5"
   stroke="#ebafd5"
   stroke-width="0.5"
   d="m 1733.65,19.59 c 19.23,-5.73 40.97,-4.76 58.79,4.91 6.29,3.49 11.98,8.53 14.87,15.24 0.84,2.66 1.18,5.45 1.79,8.18 12.3,0.37 24.71,-0.91 36.93,1.15 6.37,0.79 13.56,3.68 15.45,10.46 8.22,1.68 13.75,8.85 21.53,11.49 8.24,1.33 17.2,0.72 24.54,5.37 3.24,1.55 5.66,4.24 7.27,7.41 -10.6,0.71 -21.25,0.11 -31.87,0.3 -112.65,0 -225.31,0 -337.96,0.01 -7.36,-0.1 -14.73,0.21 -22.06,-0.33 3.41,-3.88 8.73,-4.83 13.42,-6.33 9.38,-2.13 19.08,-2.7 28.68,-2.23 3.65,0.23 7.27,1.28 10.95,0.76 2.06,-2.3 3.19,-5.43 5.93,-7.11 12.59,-9.18 28.97,-10.51 44.05,-9.92 4.91,-0.04 9.59,1.73 14.48,1.89 2.49,-7.1 9.1,-11.42 15.22,-15.17 15.22,-8.59 33.16,-10.74 50.38,-10.54 1.64,-0.22 3.77,0.3 4.94,-1.25 6.09,-6.69 13.96,-11.75 22.67,-14.29 z"
   id="path8" />
      <path
   fill="#fffcff"
   stroke="#fffcff"
   stroke-width="0.5"
   d="m 1851.39,27.37 c 2.74,-1.58 6.35,1.82 4.76,4.58 -0.93,2.76 -5.45,2.72 -6.4,0.06 -0.85,-1.66 0,-3.82 1.64,-4.64 z"
   id="path10" />
      <path
   fill="#fffeff"
   stroke="#fffeff"
   stroke-width="0.5"
   d="m 925.36,30.45 c 4.36,-0.75 8.09,4.17 6.11,8.16 -1.61,4.43 -8.65,4.56 -10.54,0.33 -1.9,-3.36 0.54,-8.17 4.43,-8.49 z"
   id="path12" />
      <path
   fill="#fffdff"
   stroke="#fffdff"
   stroke-width="0.5"
   d="m 1115.43,33.55 c 2.38,-2.2 6.86,0.32 5.77,3.54 -0.52,2.6 -4.27,3.68 -5.94,1.55 -1.43,-1.38 -1.28,-3.78 0.17,-5.09 z"
   id="path14" />
      <path
   fill="#fefdff"
   stroke="#fefdff"
   stroke-width="0.5"
   d="m 1359.21,33.16 c 3.66,-2.37 7.58,3.65 3.82,5.94 -3.75,2.89 -8.03,-3.62 -3.82,-5.94 z"
   id="path16" />
      <path
   fill="#eeb8da"
   stroke="#eeb8da"
   stroke-width="0.5"
   d="m 191.73,41.82 c 23.53,-7.29 49.1,-7.58 72.92,-1.47 10.18,2.71 20.13,6.92 28.41,13.54 2.8,2.14 4.98,5.85 8.91,5.83 8.01,0.59 16.06,0 24.07,0.66 17.31,1.5 34.84,4.34 50.65,11.87 8.89,4.12 17.6,9.84 22.73,18.42 1.05,2.18 3.81,0.84 5.66,0.77 15.78,-2.95 32.02,-2.89 47.88,-0.64 11.34,2.16 23.07,4.84 32.64,11.62 3.45,2.23 5.39,5.97 8.33,8.7 19.93,-2.09 40.36,-2.46 60.01,2.09 6.07,1.57 12.34,3.39 17.22,7.51 -13.04,0.55 -26.11,0.17 -39.16,0.27 -84.01,0.01 -168.02,0.03 -252.02,0.01 -6.05,0.16 -12.13,-0.41 -18.14,0.38 -0.51,-0.31 -1.02,-0.61 -1.53,-0.89 -2.71,-1.49 -5.73,-2.24 -8.74,-2.87 -1.84,-8.41 -9.83,-13.44 -17.69,-15.37 -19.57,-4.81 -39.89,-2.28 -59.79,-3.16 -0.95,-6.38 -1.92,-13.08 -5.68,-18.51 -3.14,-4.43 -6.37,-9.07 -11.14,-11.86 l 0.08,-0.46 c 6.13,-14.01 20.45,-21.97 34.38,-26.44 z"
   id="path18" />
      <path
   fill="#fffaff"
   stroke="#fffaff"
   stroke-width="0.5"
   d="m 726.13,36.29 c 1.91,-0.81 4.6,0.58 4.65,2.76 0.39,2.16 -1.54,4.5 -3.81,3.89 -3.65,0.18 -4.23,-5.84 -0.84,-6.65 z"
   id="path20" />
      <path
   fill="#fffbff"
   stroke="#fffbff"
   stroke-width="0.5"
   d="m 422.23,41.19 c 2.87,-1.22 6.38,1.88 4.65,4.78 -0.92,2.67 -4.98,2.61 -6.2,0.22 -1.23,-1.74 0.02,-3.93 1.55,-5 z"
   id="path22" />
      <path
   fill="#fffdff"
   stroke="#fffdff"
   stroke-width="0.5"
   d="m 1462.37,44.39 c 4.57,-0.87 8.13,4.78 5.76,8.65 -1.84,3.68 -7.61,3.98 -9.84,0.56 -2.59,-3.36 -0.31,-9.02 4.08,-9.21 z"
   id="path24" />
      <path
   fill="#f0c2df"
   stroke="#f0c2df"
   stroke-width="0.5"
   d="M 37.36,69.38 C 54.84,55.29 77.83,49.66 99.98,50.04 c 20.28,0.43 41.1,5.67 57.37,18.22 l -0.08,0.46 c -0.28,2.28 -0.45,4.57 -0.66,6.86 -10.86,1.05 -21.74,-0.41 -32.6,0.37 -9.52,-0.12 -19.17,0.2 -28.41,2.66 -3.82,1.19 -7.97,2.16 -10.91,5.07 -2.06,1.77 -3.16,4.3 -4.65,6.51 -2.92,1.18 -6.24,1.25 -9.04,2.81 -5.57,2.98 -10.75,6.62 -16.31,9.61 -2.67,1.45 -5.62,2.42 -8.68,2.43 -11.12,0.18 -22.5,1.58 -32.68,6.31 -4.36,1.97 -7.96,5.31 -10.25,9.51 83.3,0.37 166.62,0.04 249.93,0.16 2.44,0.03 4.88,-0.19 7.3,-0.53 0.51,0.28 1.02,0.58 1.53,0.89 6.22,4.32 11.93,9.51 18.74,12.92 5.39,2.81 11.61,1.54 17.38,2.51 7.44,1.18 14.96,2.95 21.58,6.64 4.63,2.83 9.49,6.62 10.58,12.25 -107.71,0.05 -215.42,0.02 -323.13,0.03 -2.15,0.01 -4.29,0.21 -6.43,0.47 -0.22,-22.71 0.01,-45.44 -0.12,-68.15 -0.03,-2.64 0.08,-5.28 0.33,-7.9 9.27,-0.52 18.76,0.41 27.88,-1.48 2.98,-3.02 5.27,-6.71 8.71,-9.29 z"
   id="path26" />
      <path
   fill="#fffdfd"
   stroke="#fffdfd"
   stroke-width="0.5"
   d="m 1204.26,56.23 c 2.15,-1.5 5.88,0.44 5.29,3.19 0.14,2.49 -2.84,4.09 -4.94,2.97 -2.44,-0.92 -2.6,-4.97 -0.35,-6.16 z"
   id="path28" />
      <path
   fill="#f5d5ea"
   stroke="#f5d5ea"
   stroke-width="0.5"
   d="m 157.27,68.72 c 4.77,2.79 8,7.43 11.14,11.86 3.76,5.43 4.73,12.13 5.68,18.51 19.9,0.88 40.22,-1.65 59.79,3.16 7.86,1.93 15.85,6.96 17.69,15.37 3.01,0.63 6.03,1.38 8.74,2.87 -2.42,0.34 -4.86,0.56 -7.3,0.53 -83.31,-0.12 -166.63,0.21 -249.93,-0.16 2.29,-4.2 5.89,-7.54 10.25,-9.51 10.18,-4.73 21.56,-6.13 32.68,-6.31 3.06,-0.01 6.01,-0.98 8.68,-2.43 C 60.25,99.62 65.43,95.98 71,93 c 2.8,-1.56 6.12,-1.63 9.04,-2.81 1.49,-2.21 2.59,-4.74 4.65,-6.51 2.94,-2.91 7.09,-3.88 10.91,-5.07 9.24,-2.46 18.89,-2.78 28.41,-2.66 10.86,-0.78 21.74,0.68 32.6,-0.37 0.21,-2.29 0.38,-4.58 0.66,-6.86 z"
   id="path30" />
      <path
   fill="#e9a4d0"
   stroke="#e9a4d0"
   stroke-width="0.5"
   d="m 1183.06,80.04 c 9.04,-6.48 20.04,-9.56 30.96,-10.93 6.63,-0.2 13.31,-0.36 19.93,0.21 7.52,1.4 15.22,2.88 21.9,6.83 9.2,3.6 16.99,11.84 18.18,21.91 -0.17,2.13 1.99,3.53 3.94,2.81 5.92,-1.33 12.02,-0.75 18.04,-0.74 7.41,1.34 15.29,0.32 22.31,3.56 3.21,1.6 7.05,3.15 8.23,6.89 0.8,2.49 3.83,2.2 5.81,3.19 5.11,3.06 9.7,6.99 14.95,9.79 8.22,1.02 16.98,0.79 24.59,4.63 3.54,1.74 7.43,4.31 8.06,8.53 -29.3,0.63 -58.65,0.13 -87.96,0.29 -81.35,0.02 -162.7,-0.05 -244.04,0.01 -20,-0.21 -40.02,0.28 -60,-0.22 2.02,-2.78 5.28,-4.2 8.43,-5.29 14.4,-4.51 29.81,-4.27 44.61,-2.45 1.99,-1.79 2.89,-4.44 4.73,-6.36 5.08,-4.52 11.63,-6.69 17.93,-8.91 3.34,-1.03 6.84,-1.44 10.32,-1.72 5,-0.36 10,-1.66 15.04,-0.85 4.61,0.76 9.37,0.6 13.88,2.02 3.12,1.45 4.1,-2.91 5.7,-4.7 6.49,-7.7 15.52,-13.18 25.26,-15.69 6.08,-2.13 12.43,-3.29 18.78,-4.28 6.39,-1.04 12.89,-0.42 19.34,-0.6 5.22,0.51 7.54,-5.16 11.08,-7.93 z"
   id="path32" />
      <path
   fill="#e9a4d0"
   stroke="#e9a4d0"
   stroke-width="0.5"
   d="m 759.61,81.59 c 10.09,-9.81 26.07,-10.69 38.73,-5.88 5.7,1.97 10.31,7.07 11.08,13.14 6.38,0.37 12.82,-0.35 19.16,0.56 3.35,0.42 5.67,2.89 7.89,5.17 2.72,1.65 5.61,3 8.25,4.79 3.54,2.58 8.31,0.75 12.02,2.91 2.16,0.91 3.81,2.6 5.21,4.43 -5.25,1.25 -10.6,-0.02 -15.9,0.33 -56.34,0.02 -112.67,-0.02 -169,-0.03 -3.73,0.03 -7.56,1.56 -11.08,-0.43 2.85,-2.22 6.41,-3.36 9.99,-3.59 3.87,-0.25 7.76,-1.57 11.64,-0.57 1.66,0.17 3.45,1.02 5.08,0.29 1.09,-1.29 1.9,-2.81 3.12,-4 6.1,-3.67 13.36,-3.84 20.22,-4.75 2.7,0.06 5.28,1.03 7.98,1.11 2.27,-1.77 3.77,-4.38 6.25,-5.94 4.74,-3.08 10.17,-5.15 15.77,-5.97 4.55,-0.29 9.14,-0.46 13.59,-1.57 z"
   id="path34" />
      <path
   fill="#fffdff"
   stroke="#fffdff"
   stroke-width="0.5"
   d="m 498.32,86.46 c 4.44,-0.28 4.99,7.06 0.37,7.11 -4.47,0.43 -4.84,-6.97 -0.37,-7.11 z"
   id="path36" />
      <path
   fill="#fefbff"
   stroke="#fefbff"
   stroke-width="0.5"
   d="m 1793.31,90.45 c 1.6,-0.85 4.18,-0.65 4.95,1.28 1.51,2.24 -0.68,5.49 -3.3,5.13 -3.33,0.27 -4.56,-5.06 -1.65,-6.41 z"
   id="path38" />
      <path
   fill="#fffbff"
   stroke="#fffbff"
   stroke-width="0.5"
   d="m 1521.32,93.3 c 4.59,-1.51 6.53,6.3 1.75,6.89 -4.26,1.23 -5.7,-5.81 -1.75,-6.89 z"
   id="path40" />
      <path
   fill="#fffbff"
   stroke="#fffbff"
   stroke-width="0.5"
   d="m 610.16,107.24 c 2.54,-1.14 5.78,0.76 5.14,3.73 -0.17,3.03 -4.36,3.88 -6.09,1.74 -1.49,-1.6 -0.88,-4.38 0.95,-5.47 z"
   id="path42" />
      <path
   fill="#fffdff"
   stroke="#fffdff"
   stroke-width="0.5"
   d="m 647.38,153.44 c 2.33,-0.39 4.75,2.33 3.66,4.56 -0.69,2.88 -5.54,3.14 -6.49,0.38 -1.06,-2.01 0.47,-4.93 2.83,-4.94 z"
   id="path44" />
      <path
   fill="#7d496f"
   stroke="#7d496f"
   stroke-width="0.5"
   d="m 0,155.2 0.56,1 c 0.81,3.54 0.41,7.2 0.48,10.79 0,73.66 0,147.32 0,220.97 -0.12,38.08 0.22,76.16 -0.17,114.24 -0.37,6.68 0.07,13.37 -0.27,20.05 l -0.6,0.5 z"
   id="path46" />
      <path
   fill="#fffcff"
   stroke="#fffcff"
   stroke-width="0.5"
   d="m 355.2,157.15 c 4.08,-2.49 7.28,4.47 3.21,6.29 -3.91,2.16 -7.07,-4.36 -3.21,-6.29 z"
   id="path48" />
      <path
   fill="#fffdff"
   stroke="#fffdff"
   stroke-width="0.5"
   d="m 470.25,164.37 c 2.56,-2.14 7.02,0.3 5.92,3.66 -0.48,2.83 -4.98,3.5 -6.3,1 -1.03,-1.43 -0.55,-3.33 0.38,-4.66 z"
   id="path50" />
      <path
   fill="#fffdff"
   stroke="#fffdff"
   stroke-width="0.5"
   d="m 1051.38,170.36 c 4.53,-1.57 6.27,6.14 1.7,6.84 -4.34,1.22 -5.95,-5.87 -1.7,-6.84 z"
   id="path52" />
      <path
   fill="#fffcff"
   stroke="#fffcff"
   stroke-width="0.5"
   d="m 204.36,188.48 c 4.51,-2.54 7.6,5.48 2.65,6.45 -3.99,1.28 -5.9,-4.5 -2.65,-6.45 z"
   id="path54" />
      <path
   fill="#fffdff"
   stroke="#fffdff"
   stroke-width="0.5"
   d="m 1352.29,191.46 c 4.58,-0.6 4.97,7.03 0.43,7.06 -4.5,0.4 -4.89,-6.91 -0.43,-7.06 z"
   id="path56" />
      <path
   fill="#fffdff"
   stroke="#fffdff"
   stroke-width="0.5"
   d="m 1592.37,198.42 c 2.85,-1.2 6.57,1.36 5.91,4.56 0.09,3.85 -5.61,5.48 -7.75,2.46 -2.03,-2.19 -0.99,-6.1 1.84,-7.02 z"
   id="path58" />
      <path
   fill="#fffeff"
   stroke="#fffeff"
   stroke-width="0.5"
   d="m 112.32,222.38 c 4.19,-2.37 9.8,1.96 8.3,6.62 -0.69,3.95 -5.92,5.74 -9.02,3.34 -3.55,-2.24 -3.08,-8.22 0.72,-9.96 z"
   id="path60" />
      <path
   fill="#fbfeff"
   stroke="#fbfeff"
   stroke-width="0.5"
   d="m 1743.38,235.45 c -0.3,-2.12 -0.32,-5.37 2.54,-5.57 3.42,-1.22 5.52,3.98 2.99,6.04 -1.64,1.55 -3.96,0.61 -5.53,-0.47 z"
   id="path62" />
      <path
   fill="#fffcff"
   stroke="#fffcff"
   stroke-width="0.5"
   d="m 1854.3,230.36 c 2.09,-1.55 5.61,-0.05 5.48,2.71 0.36,2.59 -2.97,4.72 -5.16,3.28 -2.28,-1.14 -2.5,-4.65 -0.32,-5.99 z"
   id="path64" />
      <path
   fill="#fffcff"
   stroke="#fffcff"
   stroke-width="0.5"
   d="m 811.15,254.18 c 2.4,-1.46 6,1.1 5.04,3.92 -0.26,2.68 -4.29,3.71 -5.86,1.62 -1.81,-1.48 -1.07,-4.53 0.82,-5.54 z"
   id="path66" />
      <path
   fill="#eeb8da"
   stroke="#eeb8da"
   stroke-width="0.5"
   d="m 1429.65,364.52 c 17.41,-7.16 36.55,-10.38 55.33,-8.82 20.9,1.99 41.01,11.51 55.73,26.49 11.25,11.83 19.62,26.61 22.91,42.68 2.75,-0.92 5.47,-1.94 8.21,-2.9 17.88,-5.89 38.12,-4.49 54.79,4.38 14.99,8.05 27.28,22.52 29.79,39.71 1.86,-0.29 3.75,-0.59 5.61,-1.04 10.69,-2.86 21.95,-2.92 32.89,-1.68 10.42,1.67 20.94,4.81 29.43,11.31 4.11,3.11 8.57,6.72 9.77,12.01 -37.37,-0.02 -74.74,0.02 -112.11,-0.02 -23.68,0.2 -47.38,-0.33 -71.05,0.27 -5.58,-5.4 -12.09,-9.73 -17.99,-14.75 -30.46,-24.14 -60.74,-48.54 -91.33,-72.51 -0.26,-0.2 -0.78,-0.59 -1.04,-0.79 -0.38,-0.27 -1.14,-0.82 -1.51,-1.1 -29.92,30.79 -60.69,60.76 -92.67,89.41 -6.11,-0.93 -12.3,-0.42 -18.44,-0.53 -53.66,0.01 -107.32,0.05 -160.98,-0.02 0.83,-7.74 4.57,-15.09 10.17,-20.47 12.78,-13.84 34.81,-16.81 51.52,-8.8 3.87,1.82 7.02,4.82 10.82,6.77 1.82,-14.42 8.08,-28.09 17.32,-39.25 11.01,-12.64 25.34,-22.32 41.1,-28 18.08,-7 37.84,-7.74 56.97,-6.51 10.25,0.81 20.26,3.75 29.41,8.44 1.08,0.31 2.21,1.42 3.41,1 2.32,-2.77 3.92,-6.06 6.24,-8.84 9.09,-11.97 21.84,-20.83 35.7,-26.44 z"
   id="path68" />
      <path
   fill="#ebafd5"
   stroke="#ebafd5"
   stroke-width="0.5"
   d="m 152.62,392.68 c 10.91,-5.3 23.36,-6.41 35.32,-5.44 18.08,2.06 35.67,9.39 49.24,21.62 8.32,7.16 14.35,16.6 18.77,26.57 7.25,-3.91 14.35,-8.73 22.69,-9.88 7.35,-1.6 14.89,-1.52 22.37,-1.5 15.6,0.36 31.15,5.08 44.08,13.86 22.37,14.4 37.05,39.67 39.3,66.1 4.41,-2.8 7.82,-7.11 12.92,-8.79 10.76,-5.23 24.43,-3.9 33.75,3.67 9.31,6.75 15.29,17.66 16.2,29.11 -24.61,-0.66 -49.16,-3.41 -73.31,-8.16 -11.97,-2.45 -24.03,-4.82 -35.46,-9.25 -31.76,-11.89 -62.99,-25.13 -93.94,-38.98 -4.5,-2.33 -9.39,0.54 -13.99,1.13 -67.9,14.54 -135.74,29.38 -203.6,44.08 -8.81,1.71 -17.48,4.11 -26.36,5.43 0.34,-6.68 -0.1,-13.37 0.27,-20.05 7.48,0.49 14.86,1.77 21.86,4.52 1.54,-6.55 2.53,-13.35 5.69,-19.37 3.21,-6.15 7.05,-12.03 11.8,-17.1 8.03,-7.59 18.18,-13.17 29.18,-14.84 8.33,-1.09 16.93,-0.42 24.88,2.38 3.07,1.23 5.93,2.96 9.08,4 2.41,-13.66 7.23,-27.01 14.9,-38.61 8.2,-13.14 20.06,-24.31 34.36,-30.5 z"
   id="path70" />
      <path
   fill="#a5539d"
   stroke="#a5539d"
   stroke-width="0.5"
   d="m 1346.41,487.17 c 31.98,-28.65 62.75,-58.62 92.67,-89.41 0.37,0.28 1.13,0.83 1.51,1.1 -0.02,4.24 2.4,7.88 3.92,11.69 11.92,27.77 23.72,55.6 35.68,83.36 4.2,10.85 10.04,21.18 12.2,32.74 5.36,20.43 10,41.08 15.83,61.38 5.91,-3.55 10.87,-8.41 16.52,-12.35 8.44,-6.17 16.49,-12.87 24.99,-18.95 1.29,-1.06 1.89,1.14 2.58,1.87 6.51,11.47 13.03,22.93 19.57,34.39 1.65,3.09 3.33,6.21 5.63,8.9 4.32,-8.01 7.79,-16.46 12.23,-24.4 18.04,12.44 35.23,26.07 53.21,38.59 -0.07,-2.54 0.48,-5.48 -1.6,-7.39 -22.68,-25.31 -45.48,-50.52 -68.14,-75.84 -7.23,-7.49 -13.51,-15.9 -21.15,-22.97 -0.62,6.76 -0.03,13.55 -0.39,20.32 -5.57,-4.75 -9.59,-10.96 -14.43,-16.38 -31.4,-36.97 -62.44,-74.24 -93.83,-111.21 -0.64,-0.97 -1.24,-1.96 -1.78,-2.96 30.59,23.97 60.87,48.37 91.33,72.51 5.9,5.02 12.41,9.35 17.99,14.75 17.96,25.76 36.16,51.36 54.19,77.07 1.74,2.51 3.36,5.17 5.69,7.23 27.01,21.69 54.5,42.81 81.34,64.71 -56.15,-13.3 -112.12,-27.35 -168.22,-40.83 -1.44,-0.43 -2.81,0.1 -4.03,0.78 -28.98,15.86 -58.31,31.1 -87.23,47.07 -36.14,18.12 -72.35,36.14 -109.45,52.22 -32.99,14.2 -66.42,27.88 -101.33,36.66 -10.12,2.49 -20.41,4.59 -30.84,5.08 -7.89,0.39 -15.7,-1.01 -23.46,-2.15 2.07,-0.12 4.11,-0.44 6.18,-0.79 -3.22,-1.75 -6.98,-1.72 -10.47,-2.42 -7.61,-1.46 -15.38,-1.69 -22.94,-3.35 -1.28,-0.48 -2.57,-0.9 -3.84,-1.31 -35.83,-11.12 -71,-24.29 -105.62,-38.74 -18.53,10.63 -36.73,21.82 -55.09,32.74 -5.05,3.04 -10.52,5.3 -15.62,8.26 -12.62,5.99 -25.47,11.86 -39.15,14.97 -14.23,3.33 -28.59,-1.67 -41.93,-6.27 -36.6,-13.97 -69.85,-35.09 -102.84,-55.92 -11.64,-8.93 -24.38,-16.33 -36.25,-24.96 -15.05,-10.97 -30.09,-21.95 -45.02,-33.08 -1.66,-1.11 -3.63,-2.84 -5.69,-1.57 -28.51,12.18 -57.04,24.35 -85.55,36.55 -16.18,5.52 -32.55,11.44 -49.72,12.65 -17.13,-0.27 -33.55,-5.93 -49.83,-10.67 -25.55,-10.42 -51.49,-19.88 -77.12,-30.08 -2.67,-0.97 -5.66,-2.62 -8.42,-0.99 -18.95,8.44 -38.05,16.55 -56.9,25.19 -16.08,6.84 -32.04,13.94 -47.99,21.06 -13.57,-17.74 -26.59,-35.91 -39.96,-53.8 -14.05,15.2 -27.84,30.65 -41.79,45.94 -38.28,-1.9 -76.62,-0.93 -114.86,1.26 0.15,-6.79 -0.02,-13.58 0.13,-20.36 4.54,1.93 8.87,4.33 13.5,6.03 -2.26,-2.7 -4.55,-5.38 -6.81,-8.09 1.59,0.54 3.18,1.06 4.79,1.6 -2.03,-2.83 -4.29,-5.49 -6.34,-8.3 2.3,0.83 4.57,1.78 6.81,2.79 -1.63,-2.34 -3.38,-4.58 -5.27,-6.7 0.53,-0.13 1.6,-0.41 2.13,-0.54 -1.12,-1.33 -2.22,-2.67 -3.28,-4.03 -0.53,-4.68 -4.51,-7.79 -6.94,-11.52 -2.99,3.28 -6.2,6.37 -8.81,9.98 0.72,0.07 2.17,0.22 2.89,0.29 -2.03,1.94 -3.98,3.95 -5.85,6.05 1.37,-0.36 2.73,-0.71 4.1,-1.05 -2.2,2.66 -4.7,5.05 -7.16,7.47 2.75,-0.73 5.45,-1.62 8.13,-2.57 -2.65,2.98 -5.56,5.71 -8.35,8.55 2.11,-0.67 4.22,-1.34 6.34,-1.98 -2.57,2.8 -5.45,5.3 -8.13,8 5.35,-1.33 10.38,-3.67 15.67,-5.19 0.02,6.6 0.03,13.2 -0.01,19.8 -15.89,1.27 -31.79,2.41 -47.64,4.13 -0.07,-8.9 -0.18,-17.79 0,-26.68 6.68,2.89 13.03,6.51 19.86,9.05 -3.31,-4.24 -6.93,-8.22 -10.23,-12.46 2.7,1.12 5.4,2.26 8.14,3.28 -3.84,-4.69 -7.82,-9.26 -11.67,-13.94 3.99,1.64 7.79,3.72 11.86,5.17 -2.87,-3.88 -6.24,-7.35 -9.09,-11.23 1.75,0.63 3.5,1.28 5.25,1.91 -2.25,-2.81 -4.57,-5.56 -6.93,-8.28 0.27,-0.86 0.53,-1.71 0.79,-2.55 -3.33,-4.48 -6.53,-9.05 -10.02,-13.4 -4.59,4.82 -9.41,9.5 -13.26,14.95 1.67,-0.09 3.33,-0.18 5,-0.27 -3.39,3.15 -6.71,6.37 -9.91,9.72 2.53,-0.78 5.05,-1.56 7.59,-2.28 -3.49,3.97 -7.64,7.3 -10.96,11.43 4.19,-1.16 8.24,-2.73 12.34,-4.16 -4.34,4.42 -8.87,8.66 -13.18,13.11 3.2,-0.97 6.35,-2.1 9.5,-3.2 -3.65,4.26 -7.99,7.85 -11.57,12.18 7.78,-2.28 15.17,-5.68 22.95,-7.95 -0.08,8.66 0.12,17.33 -0.14,25.99 -21.19,2.15 -42.32,4.86 -63.41,7.87 V 522.75 l 0.6,-0.5 c 8.88,-1.32 17.55,-3.72 26.36,-5.43 67.86,-14.7 135.7,-29.54 203.6,-44.08 0.45,0.19 1.35,0.57 1.8,0.75 -40.25,12.87 -80.42,26.01 -120.54,39.27 1.35,0.21 2.7,0.45 4.07,0.44 24.07,-1.93 48.13,-4.18 72.23,-5.88 -3.57,3.3 -8.09,5.22 -12.14,7.8 -11.38,6.91 -22.7,13.91 -34.25,20.54 -2.1,1.2 -4.05,2.61 -5.92,4.13 4.13,-0.18 8.17,-1.1 12.24,-1.8 28.66,-4.85 57.37,-9.41 86.03,-14.24 1.8,-0.34 3.84,-0.58 5.23,0.89 12.75,10.43 27.84,17.76 43.58,22.44 22.32,6.82 45.82,9.17 69.1,8.88 21.46,0.25 42.85,-2.12 64.06,-5.17 34.58,-5.47 68.78,-13.57 102.02,-24.56 0.63,-0.38 1.88,-1.13 2.51,-1.51 -5.69,-0.6 -11.26,1.53 -16.95,0.73 47.07,-6.35 93.74,-15.28 140.26,-24.81 43.21,-9.06 86.29,-18.72 129.15,-29.32 1.86,-0.38 3.82,-1.04 5.7,-0.34 4.32,5.2 10.4,8.38 15.36,12.87 25.37,19.61 50.33,39.75 75.69,59.37 9.78,7.43 19.07,15.53 29.04,22.7 2.03,-8.47 2.63,-17.2 4.43,-25.71 27.37,5.7 54.68,11.72 82.06,17.35 3.16,0.41 4.5,3.6 6.22,5.86 14.18,21.45 28.96,42.48 43.3,63.81 2.52,3.71 4.72,7.7 7.96,10.87 -4.55,-19.88 -9.83,-39.58 -14.51,-59.43 -1.34,-5.31 -2.48,-10.67 -4.03,-15.93 -0.67,-2.44 -1.68,-5.06 -0.53,-7.52 6.19,11.59 13.07,22.81 20.23,33.83 7.38,11.1 15.14,22.01 24.15,31.86 6.43,6.61 13.14,13.69 22.15,16.61 8.52,2.12 17.46,1.25 26.05,-0.05 18.87,-3.32 36.71,-10.79 53.74,-19.37 30.99,-15.85 59.7,-35.75 87.47,-56.64 30.77,-23.36 60.29,-48.34 88.89,-74.29 z"
   id="path72" />
      <path
   fill="#ce67b0"
   stroke="#ce67b0"
   stroke-width="0.5"
   d="m 1440.59,398.86 c 0.26,0.2 0.78,0.59 1.04,0.79 0.54,1 1.14,1.99 1.78,2.96 31.39,36.97 62.43,74.24 93.83,111.21 4.84,5.42 8.86,11.63 14.43,16.38 0.36,-6.77 -0.23,-13.56 0.39,-20.32 7.64,7.07 13.92,15.48 21.15,22.97 22.66,25.32 45.46,50.53 68.14,75.84 2.08,1.91 1.53,4.85 1.6,7.39 -17.98,-12.52 -35.17,-26.15 -53.21,-38.59 -4.44,7.94 -7.91,16.39 -12.23,24.4 -2.3,-2.69 -3.98,-5.81 -5.63,-8.9 -6.54,-11.46 -13.06,-22.92 -19.57,-34.39 -0.69,-0.73 -1.29,-2.93 -2.58,-1.87 -8.5,6.08 -16.55,12.78 -24.99,18.95 -5.65,3.94 -10.61,8.8 -16.52,12.35 -5.83,-20.3 -10.47,-40.95 -15.83,-61.38 -2.16,-11.56 -8,-21.89 -12.2,-32.74 -11.96,-27.76 -23.76,-55.59 -35.68,-83.36 -1.52,-3.81 -3.94,-7.45 -3.92,-11.69 z"
   id="path74" />
      <path
   fill="#eeb8da"
   stroke="#eeb8da"
   stroke-width="0.5"
   d="m 862.43,466.45 c 18.55,-7.22 38.83,-10.77 58.68,-8.22 15.04,2.01 29.55,7.86 41.75,16.9 5.14,3.79 9.48,8.52 13.92,13.09 10.05,10.77 16.17,24.55 19.64,38.73 14.93,-6.4 31.9,-8.53 47.71,-4.25 14.29,3.53 27.53,12 36.1,24.05 4.58,6.29 7.27,13.61 9.18,21.09 2.39,0.6 4.87,-0.84 7.27,-1.21 13.68,-3.15 28.17,-2.64 41.68,1.07 7.77,2.43 15.46,5.87 21.47,11.48 2.93,2.76 6.04,5.62 7.29,9.58 -41.05,0.27 -82.11,-0.27 -123.16,0.29 -7.16,-11.02 -14.04,-22.24 -20.23,-33.83 -0.99,-1.92 -1.93,-4.23 -4.32,-4.64 -62.88,-20.91 -125.79,-41.71 -188.67,-62.62 8.63,-9.61 19.93,-16.41 31.69,-21.51 z"
   id="path76" />
      <path
   fill="#a65497"
   stroke="#a65497"
   stroke-width="0.5"
   d="m 230.56,472.74 c 4.6,-0.59 9.49,-3.46 13.99,-1.13 30.95,13.85 62.18,27.09 93.94,38.98 -1.87,-0.04 -3.77,-0.04 -5.56,-0.62 -29.72,-9.13 -58.73,-20.84 -85.87,-36.09 -2.17,-1.2 -4.45,-2.64 -7.04,-2.46 -2.65,0.28 -5.1,1.4 -7.66,2.07 -0.45,-0.18 -1.35,-0.56 -1.8,-0.75 z"
   id="path78" />
      <path
   fill="#ce67b0"
   stroke="#ce67b0"
   stroke-width="0.5"
   d="m 778.74,470.98 c 17.47,5.23 34.62,11.46 52,16.98 62.88,20.91 125.79,41.71 188.67,62.62 2.39,0.41 3.33,2.72 4.32,4.64 -1.15,2.46 -0.14,5.08 0.53,7.52 1.55,5.26 2.69,10.62 4.03,15.93 4.68,19.85 9.96,39.55 14.51,59.43 -3.24,-3.17 -5.44,-7.16 -7.96,-10.87 -14.34,-21.33 -29.12,-42.36 -43.3,-63.81 -1.72,-2.26 -3.06,-5.45 -6.22,-5.86 -27.38,-5.63 -54.69,-11.65 -82.06,-17.35 -1.8,8.51 -2.4,17.24 -4.43,25.71 -9.97,-7.17 -19.26,-15.27 -29.04,-22.7 -25.36,-19.62 -50.32,-39.76 -75.69,-59.37 -4.96,-4.49 -11.04,-7.67 -15.36,-12.87 z"
   id="path80" />
      <path
   fill="#ce67b0"
   stroke="#ce67b0"
   stroke-width="0.5"
   d="m 232.36,473.49 c 2.56,-0.67 5.01,-1.79 7.66,-2.07 2.59,-0.18 4.87,1.26 7.04,2.46 27.14,15.25 56.15,26.96 85.87,36.09 1.79,0.58 3.69,0.58 5.56,0.62 11.43,4.43 23.49,6.8 35.46,9.25 24.15,4.75 48.7,7.5 73.31,8.16 18.81,0.6 37.71,0.01 56.37,-2.55 5.69,0.8 11.26,-1.33 16.95,-0.73 -0.63,0.38 -1.88,1.13 -2.51,1.51 -33.24,10.99 -67.44,19.09 -102.02,24.56 -21.21,3.05 -42.6,5.42 -64.06,5.17 -23.28,0.29 -46.78,-2.06 -69.1,-8.88 -15.74,-4.68 -30.83,-12.01 -43.58,-22.44 -1.39,-1.47 -3.43,-1.23 -5.23,-0.89 -28.66,4.83 -57.37,9.39 -86.03,14.24 -4.07,0.7 -8.11,1.62 -12.24,1.8 1.87,-1.52 3.82,-2.93 5.92,-4.13 11.55,-6.63 22.87,-13.63 34.25,-20.54 4.05,-2.58 8.57,-4.5 12.14,-7.8 -24.1,1.7 -48.16,3.95 -72.23,5.88 -1.37,0.01 -2.72,-0.23 -4.07,-0.44 40.12,-13.26 80.29,-26.4 120.54,-39.27 z"
   id="path82" />
      <path
   fill="#a5539d"
   stroke="#a5539d"
   stroke-width="0.5"
   d="m 1785.39,530.47 c 11.26,-13.25 22.15,-26.83 33.68,-39.84 3.21,20.21 7.33,40.25 10.86,60.4 2.5,12.39 4.38,24.9 7.06,37.25 9.79,-9.05 18.35,-19.33 27.72,-28.81 11.83,-8.51 24.3,-16.14 36.35,-24.36 5.97,-4.16 12.41,-7.68 18.04,-12.32 l 0.9,-1.04 v 169.99 c -16,-3.98 -31.99,-8.08 -48.09,-11.6 -3.42,-3.57 -6.5,-7.45 -9.6,-11.28 1.48,-0.04 3.07,-0.03 4.62,-0.03 -6.43,-8.42 -12.61,-17.01 -18.93,-25.5 -7.65,8.39 -15.08,16.97 -22.97,25.12 -14.94,-3.48 -29.75,-7.52 -44.78,-10.64 -27.97,-7.34 -56.18,-13.81 -84.24,-20.79 29.79,-35.52 59.58,-71.04 89.38,-106.55 z"
   id="path84" />
      <path
   fill="#ce67b0"
   stroke="#ce67b0"
   stroke-width="0.5"
   d="m 1819.07,490.63 c 11.47,17.03 22.47,34.38 33.83,51.48 4.01,5.73 7.33,11.96 11.81,17.36 -9.37,9.48 -17.93,19.76 -27.72,28.81 -2.68,-12.35 -4.56,-24.86 -7.06,-37.25 -3.53,-20.15 -7.65,-40.19 -10.86,-60.4 z"
   id="path86" />
      <path
   fill="#792a79"
   stroke="#792a79"
   stroke-width="0.5"
   d="m 1519.92,595.87 c 1.22,-0.68 2.59,-1.21 4.03,-0.78 56.1,13.48 112.07,27.53 168.22,40.83 1.26,0.37 2.53,0.74 3.84,1.1 28.06,6.98 56.27,13.45 84.24,20.79 -12.26,-0.69 -24.38,-3.02 -36.57,-4.42 -50.33,-7.04 -100.71,-13.78 -151.03,-20.87 -5.54,-0.77 -10.7,1.9 -15.96,3.11 -23.17,6.11 -46.29,12.41 -69.5,18.35 2.95,-8.98 8.11,-17.07 10.83,-26.13 -5.43,-0.05 -10.62,1.72 -15.94,2.52 -21.41,3.96 -42.79,8.07 -64.16,12.19 -1.76,0.21 -3.51,0.25 -5.23,0.38 28.92,-15.97 58.25,-31.21 87.23,-47.07 z"
   id="path88" />
      <path
   fill="#4f1150"
   stroke="#4f1150"
   stroke-width="0.5"
   d="m 51.79,619.6 c 3.85,-5.45 8.67,-10.13 13.26,-14.95 3.49,4.35 6.69,8.92 10.02,13.4 -0.26,0.84 -0.52,1.69 -0.79,2.55 2.36,2.72 4.68,5.47 6.93,8.28 -1.75,-0.63 -3.5,-1.28 -5.25,-1.91 2.85,3.88 6.22,7.35 9.09,11.23 -4.07,-1.45 -7.87,-3.53 -11.86,-5.17 3.85,4.68 7.83,9.25 11.67,13.94 -2.74,-1.02 -5.44,-2.16 -8.14,-3.28 3.3,4.24 6.92,8.22 10.23,12.46 -6.83,-2.54 -13.18,-6.16 -19.86,-9.05 -0.18,8.89 -0.07,17.78 0,26.68 15.85,-1.72 31.75,-2.86 47.64,-4.13 0.04,-6.6 0.03,-13.2 0.01,-19.8 -5.29,1.52 -10.32,3.86 -15.67,5.19 2.68,-2.7 5.56,-5.2 8.13,-8 -2.12,0.64 -4.23,1.31 -6.34,1.98 2.79,-2.84 5.7,-5.57 8.35,-8.55 -2.68,0.95 -5.38,1.84 -8.13,2.57 2.46,-2.42 4.96,-4.81 7.16,-7.47 -1.37,0.34 -2.73,0.69 -4.1,1.05 1.87,-2.1 3.82,-4.11 5.85,-6.05 -0.72,-0.07 -2.17,-0.22 -2.89,-0.29 2.61,-3.61 5.82,-6.7 8.81,-9.98 2.43,3.73 6.41,6.84 6.94,11.52 1.06,1.36 2.16,2.7 3.28,4.03 -0.53,0.13 -1.6,0.41 -2.13,0.54 1.89,2.12 3.64,4.36 5.27,6.7 -2.24,-1.01 -4.51,-1.96 -6.81,-2.79 2.05,2.81 4.31,5.47 6.34,8.3 -1.61,-0.54 -3.2,-1.06 -4.79,-1.6 2.26,2.71 4.55,5.39 6.81,8.09 -4.63,-1.7 -8.96,-4.1 -13.5,-6.03 -0.15,6.78 0.02,13.57 -0.13,20.36 38.24,-2.19 76.58,-3.16 114.86,-1.26 -5.25,5.78 -10.51,11.55 -15.72,17.37 7.07,2.62 14.96,-2.34 22.07,0.13 -4.76,4.86 -9.47,9.78 -14.42,14.46 -37.8,-5.14 -75.84,-8.45 -113.94,-10.25 C 73.41,687.62 36.68,688 0,688.16 v -6.12 c 21.09,-3.01 42.22,-5.72 63.41,-7.87 0.26,-8.66 0.06,-17.33 0.14,-25.99 -7.78,2.27 -15.17,5.67 -22.95,7.95 3.58,-4.33 7.92,-7.92 11.57,-12.18 -3.15,1.1 -6.3,2.23 -9.5,3.2 4.31,-4.45 8.84,-8.69 13.18,-13.11 -4.1,1.43 -8.15,3 -12.34,4.16 3.32,-4.13 7.47,-7.46 10.96,-11.43 -2.54,0.72 -5.06,1.5 -7.59,2.28 3.2,-3.35 6.52,-6.57 9.91,-9.72 -1.67,0.09 -3.33,0.18 -5,0.27 z"
   id="path90" />
      <path
   fill="#792a79"
   stroke="#792a79"
   stroke-width="0.5"
   d="m 689.33,622.31 c 2.06,-1.27 4.03,0.46 5.69,1.57 14.93,11.13 29.97,22.11 45.02,33.08 11.87,8.63 24.61,16.03 36.25,24.96 -5.19,-1.34 -9.56,-4.5 -14.22,-6.99 -16.55,-8.28 -33.1,-16.86 -50.91,-22.13 -3.92,-1.06 -7.98,-1.89 -12.05,-1.55 -2.47,0.19 -4.9,2.06 -5.09,4.65 -0.8,7.05 0.81,14.07 1.72,21.03 -7.31,-6.89 -14.36,-14.05 -21.68,-20.92 -1.87,-1.71 -3.77,-4.27 -6.64,-3.54 -16.03,1.5 -32.02,3.41 -48.04,5 -5.19,0.64 -10.37,1.32 -15.6,1.39 28.51,-12.2 57.04,-24.37 85.55,-36.55 z"
   id="path92" />
      <g
   id="g5509"
   inkscape:label="full-ship"
   transform="translate(-502.64582,-348.12218)"><path
     fill="#441444"
     stroke="#441444"
     stroke-width="0.5"
     d="m 1109.9193,1085.5069 c 4.24,0.49 8.47,1.11 12.67,1.92 -1.07,0.52 -2.12,1.05 -3.17,1.59 1.13,0.61 2.28,1.23 3.43,1.87 -3.98,0.37 -7.97,0.43 -11.95,0.42 -0.92,5.72 1.27,11.19 3.15,16.47 0.94,1.8 -0.19,3.59 -0.84,5.27 3.62,1.38 7.83,1.39 11.15,3.35 1.57,4.35 1.63,9.15 3.76,13.35 3.56,0.16 7.13,0.18 10.7,0.1 -0.16,-2.07 -0.29,-4.13 -0.42,-6.19 2.68,0.49 5.42,1.83 8.18,1.31 2.36,-3.17 -0.93,-6.81 -1.74,-9.98 0.69,-3.11 2.8,-5.76 3.1,-8.97 0.28,-3.52 0.27,-7.05 0.73,-10.55 3.08,2.01 6.63,3.03 10.17,3.92 0.39,1.52 0.85,3.03 1.37,4.53 -3.51,-0.85 -7.11,-1.35 -10.72,-1.11 -0.53,4.23 1.35,8.12 1.99,12.2 -1.24,3.46 -3.39,7.15 -1.09,10.73 2.62,-0.49 5.25,-1.57 7.95,-1.28 2.94,3.4 4.45,7.73 6.14,11.83 1.44,3.71 3.22,7.66 2.34,11.75 -0.45,3.34 -3.06,5.73 -4.42,8.67 1.38,4.14 3.34,8.14 3.72,12.57 0.37,5.27 -1.86,10.14 -3.71,14.94 7.54,-0.83 14.86,-2.94 22.35,-4.08 10.26,-1.61 20.34,-4.17 30.55,-6.04 -0.59,0.9 -1.4,1.46 -2.43,1.66 -11.13,2.4 -22.31,4.63 -33.33,7.49 0.78,0.13 2.35,0.4 3.14,0.53 0.45,1.08 0.91,2.18 1.39,3.28 -2.41,1.29 -4.93,2.85 -5.49,5.77 -1.08,4.14 -4.68,6.65 -8.21,8.61 -0.85,6.23 -5.03,11.74 -10.59,14.58 -3.54,1.86 -7.55,2.46 -11.44,3.16 -14.77,1.96 -29.72,0.8 -44.56,0.8 -14.7,-0.01 -29.39,0.97 -44.09,1.09 -0.87,-0.01 -2.6,-0.02 -3.47,-0.03 0.54,-0.84 1.11,-1.66 1.7,-2.45 1.49,-1.23 3.41,-2.03 4.56,-3.61 1.07,-5.95 0.46,-12.05 0.07,-18.04 -0.07,-2.1 -0.66,-4.12 -1.74,-5.91 -3.77,-6.63 -5.02,-14.3 -6.12,-21.74 -0.67,-0.02 -2,-0.05 -2.66,-0.07 -3.16,-1.96 -8.12,-3.59 -7.46,-8.23 -0.84,-3.17 4.1,-4.92 5.99,-2.65 2.24,2.15 -0.21,5.21 -0.65,7.66 1.57,0.28 3.15,0.58 4.74,0.9 -0.83,-2.54 -1.88,-5.22 -0.97,-7.89 1.92,-6.67 -2.01,-13.7 0.18,-20.23 1.99,3.56 4.8,6.51 7.36,9.65 2.77,4 1.16,8.95 -0.94,12.84 0.32,1.15 0.66,2.3 1,3.47 -0.92,0.82 -1.85,1.63 -2.75,2.47 0.59,1.1 0.91,2.88 2.57,2.66 2.16,0.32 4.35,0.66 6.55,0.82 l 0.69,-1.05 c 1.39,-7.94 3.83,-15.67 5.16,-23.61 -1.06,-9.49 -6.42,-17.82 -8.69,-26.99 4.27,4 7.76,8.72 11.1,13.5 2.19,-4.12 2.97,-8.76 3.25,-13.36 3.16,0.04 6.33,0.33 9.45,0.94 -0.3,0.33 -0.92,0.99 -1.23,1.33 0.34,0.55 0.69,1.12 1.04,1.69 -2.6,0.47 -5.21,0.87 -7.81,1.25 0.8,2.24 2.4,4.03 4.37,5.35 3.29,2.27 5.99,5.28 9.4,7.4 3.19,-9.9 1.75,-20.61 -2.43,-29.97 4.41,1.05 8.73,2.45 13.1,3.67 1.16,-3.98 2.44,-7.91 3.8,-11.81 1.53,-4.34 0.89,-9.02 1.06,-13.52 m -27.09,44.64 c 0.19,1.3 0.41,2.61 0.61,3.92 -3.16,4.83 -0.6,10.8 2.57,14.91 2.92,-1.98 5.21,-4.77 7,-7.79 0.54,-0.87 0.87,-2.33 -0.2,-2.95 -3.3,-2.73 -6.4,-5.72 -9.98,-8.09 m 46.88,1.16 c 0.18,3.27 1.5,6.43 1.14,9.73 -0.37,3.05 -1.03,6.05 -1.39,9.1 -3.71,1.76 -6.29,-2.38 -9.73,-2.94 -2.46,1.23 -4.05,3.62 -5.9,5.58 5.58,1.13 11.27,1.67 16.94,2.15 1.32,0.25 2.36,-0.88 3.17,-1.75 4.17,-6.37 7.96,-13.86 6.39,-21.71 -3.53,-0.43 -7.08,-0.28 -10.62,-0.16 m -32.59,14.18 c -2.4,0.77 -5.91,1.28 -6.52,4.22 4.44,0.65 8.97,2.54 13.49,1.48 -1.12,-2.83 -3.25,-6.93 -6.97,-5.7 m -22.84,3.55 c -1.41,6.56 -2.94,13.11 -4.23,19.7 -0.1,0.58 -0.31,1.75 -0.41,2.33 1.67,0.04 4.14,1.02 4.83,-1.36 2.02,-6.73 1.29,-13.91 -0.19,-20.67 m 17.37,9.1 c 0.93,4.41 3.8,7.91 6.27,11.55 -0.61,-0.19 -1.85,-0.57 -2.46,-0.77 0.19,0.42 0.58,1.26 0.77,1.69 -1.82,1.35 -4.5,2.25 -5.31,4.52 0.89,2.69 3.49,4.35 5.61,6.06 0.56,-2.93 4.49,-6.35 2.05,-9.08 l 1.29,-0.1 c 1.37,0.07 2.26,-2.14 1.36,-3.12 2.55,-2.35 3.5,-6.19 4.58,-9.45 -2.79,-0.49 -5.44,-1.49 -8.17,-2.2 -2.04,-0.11 -4.02,0.52 -5.99,0.9 m 20.07,1.93 c 0.47,3.22 1.89,6.16 3.02,9.19 1.86,6.42 4.32,12.64 6.43,18.98 1.01,-0.48 1.59,-1.3 1.74,-2.45 0.21,0.57 0.64,1.72 0.85,2.29 0.45,-0.16 1.36,-0.49 1.81,-0.65 0.25,0.41 1.15,2.01 1.48,0.96 3.86,-2.73 8.37,-4.87 11.25,-8.74 0.97,-1.29 -1.29,-2.19 -1.46,-3.42 0.58,0.29 1.74,0.86 2.33,1.15 1.29,-2.49 1.34,-5.32 1.23,-8.06 l -0.59,-0.01 c -0.27,-3.38 -1.11,-7.13 -3.87,-9.35 -1.99,2.48 -1.61,6.28 -4.1,8.33 0.35,-2.16 0.7,-4.31 0.82,-6.48 -1.4,2.69 -1.97,5.73 -3.5,8.38 -0.54,-3.26 1.43,-6.23 2.12,-9.32 -0.47,-0.36 -1.4,-1.08 -1.86,-1.44 -5.66,2.26 -11.78,0.34 -17.7,0.64 m -25.79,7.89 c 0.06,2.22 -0.37,5.48 2.05,6.64 -0.02,-2.4 0.14,-5.1 -2.05,-6.64 m -5.95,1.48 c 0.05,1.04 0.1,2.09 0.16,3.14 1.49,0.38 3,0.77 4.51,1.17 -0.25,-1.83 -0.3,-3.83 -1.7,-5.2 -0.74,0.23 -2.22,0.67 -2.97,0.89 m 8.54,-0.8 c 0.22,1.8 0.58,3.59 1.09,5.35 1.57,-0.69 2.78,-1.92 3.92,-3.16 -1.53,-1.04 -3.11,-2.1 -5.01,-2.19 m 14.65,0.84 c -0.86,1.18 -1.74,2.91 -1.2,4.39 1.73,0.26 2.7,-3.91 1.2,-4.39 m 3.04,-0.73 c -1.34,3.06 -2.33,6.35 -2.06,9.74 -1.4,1.56 -1.93,3.41 -1.18,5.45 0.59,-0.66 1.18,-1.32 1.76,-1.97 -0.05,1.48 0.61,2.09 1.98,1.81 0.6,-1.34 0.23,-2.29 -1.11,-2.85 l 0.52,-1.01 0.49,0.08 0.62,-0.51 c 0.42,-3.55 0.82,-7.5 -1.02,-10.74 m 8.66,10.28 c 0.85,3.42 0.76,7.2 2.77,10.24 -0.63,-6.81 -3.07,-13.3 -4.44,-19.97 -0.05,3.29 1.21,6.47 1.67,9.73 m -3.66,-8.99 c -0.68,3.93 1.44,7.82 0.25,11.69 -0.37,2.14 -1.98,4.78 0.07,6.56 0.18,-1.76 0.37,-3.5 0.58,-5.23 0.88,1.66 0.21,4 1.73,5.32 -0.04,-2.18 -0.32,-4.37 -1.43,-6.26 0.34,-4.1 -1.34,-7.99 -1.2,-12.08 m -12.57,12.25 c 3.34,0.26 2.58,-4.79 3.16,-6.92 -1.94,1.8 -2.34,4.52 -3.16,6.92 m 51.82,1.76 c 2.88,0.02 5.78,0.04 8.67,-0.11 -1.77,-1.54 -4.03,-2.39 -6.35,-2.48 -1.91,-0.27 -2.68,0.59 -2.32,2.59 m 12.25,2.48 c 1.09,3.48 5.48,2.43 8.12,1.6 2.24,-0.99 5.93,-1.21 6.12,-4.28 -4.84,0.32 -9.49,1.83 -14.24,2.68 m -27.5,-0.42 c -1.28,-0.04 -4.84,2.07 -1.7,2.16 1.41,0.54 4.57,-2.46 1.7,-2.16 z"
     id="path112"
     inkscape:label="ship" /><path
     fill="#441444"
     stroke="#441444"
     stroke-width="0.5"
     d="m 1110.1866,1356.6205 c 4.24,-0.49 8.47,-1.11 12.67,-1.92 -1.07,-0.52 -2.12,-1.05 -3.17,-1.59 1.13,-0.61 2.28,-1.23 3.43,-1.87 -3.98,-0.37 -7.97,-0.43 -11.95,-0.42 -0.92,-5.72 1.27,-11.19 3.15,-16.47 0.94,-1.8 -0.19,-3.59 -0.84,-5.27 3.62,-1.38 7.83,-1.39 11.15,-3.35 1.57,-4.35 1.63,-9.15 3.76,-13.35 3.56,-0.16 7.13,-0.18 10.7,-0.1 -0.16,2.07 -0.29,4.13 -0.42,6.19 2.68,-0.49 5.42,-1.83 8.18,-1.31 2.36,3.17 -0.93,6.81 -1.74,9.98 0.69,3.11 2.8,5.76 3.1,8.97 0.28,3.52 0.27,7.05 0.73,10.55 3.08,-2.01 6.63,-3.03 10.17,-3.92 0.39,-1.52 0.85,-3.03 1.37,-4.53 -3.51,0.85 -7.11,1.35 -10.72,1.11 -0.53,-4.23 1.35,-8.12 1.99,-12.2 -1.24,-3.46 -3.39,-7.15 -1.09,-10.73 2.62,0.49 5.25,1.57 7.95,1.28 2.94,-3.4 4.45,-7.73 6.14,-11.83 1.44,-3.71 3.22,-7.66 2.34,-11.75 -0.45,-3.34 -3.06,-5.73 -4.42,-8.67 1.38,-4.14 3.34,-8.14 3.72,-12.57 0.37,-5.27 -1.86,-10.14 -3.71,-14.94 7.54,0.83 14.86,2.94 22.35,4.08 10.26,1.61 20.34,4.17 30.55,6.04 -0.59,-0.9 -1.4,-1.46 -2.43,-1.66 -11.13,-2.4 -22.31,-4.63 -33.33,-7.49 0.78,-0.13 2.35,-0.4 3.14,-0.53 0.45,-1.08 0.91,-2.18 1.39,-3.28 -2.41,-1.29 -4.93,-2.85 -5.49,-5.77 -1.08,-4.14 -4.68,-6.65 -8.21,-8.61 -0.85,-6.23 -5.03,-11.74 -10.59,-14.58 -3.54,-1.86 -7.55,-2.46 -11.44,-3.16 -14.77,-1.96 -29.72,-0.8 -44.56,-0.8 -14.7,0.01 -29.39,-0.97 -44.09,-1.09 -0.87,0.01 -2.6,0.02 -3.47,0.03 0.54,0.84 1.11,1.66 1.7,2.45 1.49,1.23 3.41,2.03 4.56,3.61 1.07,5.95 0.46,12.05 0.07,18.04 -0.07,2.1 -0.66,4.12 -1.74,5.91 -3.77,6.63 -5.02,14.3 -6.12,21.74 -0.67,0.02 -2,0.05 -2.66,0.07 -3.16,1.96 -8.12,3.59 -7.46,8.23 -0.84,3.17 4.1,4.92 5.99,2.65 2.24,-2.15 -0.21,-5.21 -0.65,-7.66 1.57,-0.28 3.15,-0.58 4.74,-0.9 -0.83,2.54 -1.88,5.22 -0.97,7.89 1.92,6.67 -2.01,13.7 0.18,20.23 1.99,-3.56 4.8,-6.51 7.36,-9.65 2.77,-4 1.16,-8.95 -0.94,-12.84 0.32,-1.15 0.66,-2.3 1,-3.47 -0.92,-0.82 -1.85,-1.63 -2.75,-2.47 0.59,-1.1 0.91,-2.88 2.57,-2.66 2.16,-0.32 4.35,-0.66 6.55,-0.82 l 0.69,1.05 c 1.39,7.94 3.83,15.67 5.16,23.61 -1.06,9.49 -6.42,17.82 -8.69,26.99 4.27,-4 7.76,-8.72 11.1,-13.5 2.19,4.12 2.97,8.76 3.25,13.36 3.16,-0.04 6.33,-0.33 9.45,-0.94 -0.3,-0.33 -0.92,-0.99 -1.23,-1.33 0.34,-0.55 0.69,-1.12 1.04,-1.69 -2.6,-0.47 -5.21,-0.87 -7.81,-1.25 0.8,-2.24 2.4,-4.03 4.37,-5.35 3.29,-2.27 5.99,-5.28 9.4,-7.4 3.19,9.9 1.75,20.61 -2.43,29.97 4.41,-1.05 8.73,-2.45 13.1,-3.67 1.16,3.98 2.44,7.91 3.8,11.81 1.53,4.34 0.89,9.02 1.06,13.52 m -27.09,-44.64 c 0.19,-1.3 0.41,-2.61 0.61,-3.92 -3.16,-4.83 -0.6,-10.8 2.57,-14.91 2.92,1.98 5.21,4.77 7,7.79 0.54,0.87 0.87,2.33 -0.2,2.95 -3.3,2.73 -6.4,5.72 -9.98,8.09 m 46.88,-1.16 c 0.18,-3.27 1.5,-6.43 1.14,-9.73 -0.37,-3.05 -1.03,-6.05 -1.39,-9.1 -3.71,-1.76 -6.29,2.38 -9.73,2.94 -2.46,-1.23 -4.05,-3.62 -5.9,-5.58 5.58,-1.13 11.27,-1.67 16.94,-2.15 1.32,-0.25 2.36,0.88 3.17,1.75 4.17,6.37 7.96,13.86 6.39,21.71 -3.53,0.43 -7.08,0.28 -10.62,0.16 m -32.59,-14.18 c -2.4,-0.77 -5.91,-1.28 -6.52,-4.22 4.44,-0.65 8.97,-2.54 13.49,-1.48 -1.12,2.83 -3.25,6.93 -6.97,5.7 m -22.84,-3.55 c -1.41,-6.56 -2.94,-13.11 -4.23,-19.7 -0.1,-0.58 -0.31,-1.75 -0.41,-2.33 1.67,-0.04 4.14,-1.02 4.83,1.36 2.02,6.73 1.29,13.91 -0.19,20.67 m 17.37,-9.1 c 0.93,-4.41 3.8,-7.91 6.27,-11.55 -0.61,0.19 -1.85,0.57 -2.46,0.77 0.19,-0.42 0.58,-1.26 0.77,-1.69 -1.82,-1.35 -4.5,-2.25 -5.31,-4.52 0.89,-2.69 3.49,-4.35 5.61,-6.06 0.56,2.93 4.49,6.35 2.05,9.08 l 1.29,0.1 c 1.37,-0.07 2.26,2.14 1.36,3.12 2.55,2.35 3.5,6.19 4.58,9.45 -2.79,0.49 -5.44,1.49 -8.17,2.2 -2.04,0.11 -4.02,-0.52 -5.99,-0.9 m 20.07,-1.93 c 0.47,-3.22 1.89,-6.16 3.02,-9.19 1.86,-6.42 4.32,-12.64 6.43,-18.98 1.01,0.48 1.59,1.3 1.74,2.45 0.21,-0.57 0.64,-1.72 0.85,-2.29 0.45,0.16 1.36,0.49 1.81,0.65 0.25,-0.41 1.15,-2.01 1.48,-0.96 3.86,2.73 8.37,4.87 11.25,8.74 0.97,1.29 -1.29,2.19 -1.46,3.42 0.58,-0.29 1.74,-0.86 2.33,-1.15 1.29,2.49 1.34,5.32 1.23,8.06 l -0.59,0.01 c -0.27,3.38 -1.11,7.13 -3.87,9.35 -1.99,-2.48 -1.61,-6.28 -4.1,-8.33 0.35,2.16 0.7,4.31 0.82,6.48 -1.4,-2.69 -1.97,-5.73 -3.5,-8.38 -0.54,3.26 1.43,6.23 2.12,9.32 -0.47,0.36 -1.4,1.08 -1.86,1.44 -5.66,-2.26 -11.78,-0.34 -17.7,-0.64 m -25.79,-7.89 c 0.06,-2.22 -0.37,-5.48 2.05,-6.64 -0.02,2.4 0.14,5.1 -2.05,6.64 m -5.95,-1.48 c 0.05,-1.04 0.1,-2.09 0.16,-3.14 1.49,-0.38 3,-0.77 4.51,-1.17 -0.25,1.83 -0.3,3.83 -1.7,5.2 -0.74,-0.23 -2.22,-0.67 -2.97,-0.89 m 8.54,0.8 c 0.22,-1.8 0.58,-3.59 1.09,-5.35 1.57,0.69 2.78,1.92 3.92,3.16 -1.53,1.04 -3.11,2.1 -5.01,2.19 m 14.65,-0.84 c -0.86,-1.18 -1.74,-2.91 -1.2,-4.39 1.73,-0.26 2.7,3.91 1.2,4.39 m 3.04,0.73 c -1.34,-3.06 -2.33,-6.35 -2.06,-9.74 -1.4,-1.56 -1.93,-3.41 -1.18,-5.45 0.59,0.66 1.18,1.32 1.76,1.97 -0.05,-1.48 0.61,-2.09 1.98,-1.81 0.6,1.34 0.23,2.29 -1.11,2.85 l 0.52,1.01 0.49,-0.08 0.62,0.51 c 0.42,3.55 0.82,7.5 -1.02,10.74 m 8.66,-10.28 c 0.85,-3.42 0.76,-7.2 2.77,-10.24 -0.63,6.81 -3.07,13.3 -4.44,19.97 -0.05,-3.29 1.21,-6.47 1.67,-9.73 m -3.66,8.99 c -0.68,-3.93 1.44,-7.82 0.25,-11.69 -0.37,-2.14 -1.98,-4.78 0.07,-6.56 0.18,1.76 0.37,3.5 0.58,5.23 0.88,-1.66 0.21,-4 1.73,-5.32 -0.04,2.18 -0.32,4.37 -1.43,6.26 0.34,4.1 -1.34,7.99 -1.2,12.08 m -12.57,-12.25 c 3.34,-0.26 2.58,4.79 3.16,6.92 -1.94,-1.8 -2.34,-4.52 -3.16,-6.92 m 51.82,-1.76 c 2.88,-0.02 5.78,-0.04 8.67,0.11 -1.77,1.54 -4.03,2.39 -6.35,2.48 -1.91,0.27 -2.68,-0.59 -2.32,-2.59 m 12.25,-2.48 c 1.09,-3.48 5.48,-2.43 8.12,-1.6 2.24,0.99 5.93,1.21 6.12,4.28 -4.84,-0.32 -9.49,-1.83 -14.24,-2.68 m -27.5,0.42 c -1.28,0.04 -4.84,-2.07 -1.7,-2.16 1.41,-0.54 4.57,2.46 1.7,2.16 z"
     id="path112-7"
     inkscape:label="ship"
     style="opacity:0.142105" /><path
     fill="#7a3673"
     stroke="#7a3673"
     stroke-width="0.5"
     d="m 933.29869,1214.5682 c 6.8,-0.55 13.59,0.42 20.38,0.67 35.4,1.49 70.75991,3.81 106.15991,5.04 -0.59,0.79 -1.16,1.61 -1.7,2.45 -31.81,0.94 -63.58991,2.65 -95.39991,3.61 -2.52,0.1 -5.01,0.49 -7.48,0.96 -9.08703,0.155 -30.53407,-4.0506 -21.96,-12.73 z"
     id="path194-1"
     style="mix-blend-mode:normal;stroke:url(#linearGradient4506);filter:url(#filter4508);opacity:0.73552632"
     sodipodi:nodetypes="ccccccc" /></g><path
   fill="#1a0818"
   stroke="#1a0818"
   stroke-width="0.5"
   d="m 232.05,668.16 c 13.95,-15.29 27.74,-30.74 41.79,-45.94 13.37,17.89 26.39,36.06 39.96,53.8 0.22,0.26 0.67,0.76 0.9,1.01 1.68,3.26 4.22,5.96 5.93,9.21 -3.63,0.06 -7.26,-0.04 -10.89,-0.04 4.46,6.41 9.71,12.24 14.82,18.14 4.21,5.18 8.44,10.35 12.97,15.25 0.08,1.01 0.17,2.02 0.27,3.04 -0.75,0.19 -2.23,0.55 -2.97,0.74 -5.49,-2.69 -10.82,-5.88 -16.75,-7.51 0.66,1.33 1.33,2.66 2.08,3.96 3.52,4.13 7.57,7.81 10.92,12.1 4.75,6.19 9.88,12.08 14.99,17.98 4.16,5.45 9.42,10.04 12.84,16.05 -8.03,-1.75 -15.07,-6.29 -22.59,-9.44 -7.36,-4.13 -15.23,-7.2 -22.7,-11.1 -1.5,-0.8 -3.16,-1.17 -4.82,-1.44 0.53,1.13 1.05,2.31 1.84,3.31 7.65,9.36 15.31,18.71 23.37,27.72 3.66,3.72 6.38,8.22 9.8,12.16 4.91,5.43 9.23,11.37 14.15,16.8 -6.53,-1.92 -12.67,-4.9 -18.61,-8.16 -5.81,-2.18 -11.03,-5.97 -17.26,-6.92 2.93,4.97 7.38,8.78 10.59,13.56 6.17,6.8 12.15,13.78 17.93,20.92 4.96,6.1 10.74,11.71 14.39,18.76 -3.54,-0.11 -6.65,-1.83 -9.68,-3.46 -20.73,-9.43 -41.28,-19.29 -61.81,-29.18 -3.48,-1.93 -7.11,-4.07 -11.27,-3.35 -0.12,32.56 -0.17,65.13 0.04,97.69 5.7,-1.26 11.24,-3.16 17.01,-4.13 2.48,-0.41 4.9,-1.14 7.11,-2.37 2.94,-1.75 6.49,-1.33 9.76,-1.62 -2.58,-6.15 -9.96,-7.15 -14.41,-11.27 4.85,0.03 9.87,0.34 14.32,2.45 3.75,1.51 6.67,4.75 10.8,5.32 -1.06,-5.42 -5.12,-9.41 -8.85,-13.17 -7.1,-6.28 -15.93,-10.45 -25.17,-12.44 4.98,-2.05 10.46,-1.02 15.56,-0.08 7.83,1.56 15.76,3.97 22.21,8.85 2.6,1.81 5,4.17 8.21,4.85 0.85,-6.08 -1.52,-11.8 -3.85,-17.25 -1.38,-2.79 -3.92,-4.73 -5.91,-7.04 4.17,0.07 8.15,2.09 10.67,5.41 2.01,2.71 3.73,5.67 6.18,8.05 3.36,-4.86 7.45,-11.95 14.35,-10.91 -4.99,5.48 -9.46,12.65 -8.17,20.38 8.67,-6.09 18.41,-11.02 28.97,-12.67 5.29,-1.24 10.73,-0.19 16.08,0.1 -9.04,2.22 -18.35,5.1 -25.41,11.46 -1.73,1.31 -3.02,3.07 -3.93,5.04 8.66,-1.82 17.21,-4.1 25.79,-6.26 2.16,-0.37 4.65,-1.01 6.61,0.34 6.24,3.9 12.61,7.95 19.7,10.1 4.81,-3.07 7.92,-8.15 12.55,-11.49 3.97,-4 8.36,-7.72 11.51,-12.44 -6.58,-0.11 -11.57,5.62 -18.15,4.95 0.34,-0.98 0.84,-1.84 1.52,-2.58 6.95,-6.07 13.03,-13.04 19.7,-19.41 1.21,-1.15 2.08,-2.6 2.93,-4.02 -6.82,0.25 -12.63,4.15 -18.95,6.18 -1.42,0.53 -2.93,0.4 -4.39,0.23 4.19,-5.35 9.5,-9.67 14.13,-14.62 2.94,-3.05 6.41,-5.7 8.44,-9.51 -4.86,1.36 -9.51,3.4 -14.45,4.46 5.22,-7.83 13.48,-13.04 19.22,-20.5 -3.36,-0.13 -6.72,-0.06 -10.08,0.19 6.47,-9.54 15.22,-17.14 22.51,-26.01 1.88,-2.36 4.03,-4.48 6.42,-6.32 5.81,8.49 12.43,16.36 18.47,24.68 1.61,2.21 2.64,4.76 3.64,7.29 -0.9,0.51 -1.78,1.04 -2.66,1.57 2.27,5.21 7.83,7.59 10.96,12.16 1.93,2.23 3.11,4.96 3.84,7.8 -1.38,-0.54 -2.75,-1.1 -4.12,-1.64 -0.5,0.3 -1.49,0.88 -1.99,1.17 2.69,7.54 10.36,11.69 13.19,19.04 -7.85,-1.81 -14.46,-6.98 -22.31,-8.89 6.25,10.48 15.82,18.44 22.35,28.69 -5.61,-1.21 -10.38,-4.78 -16.07,-5.85 3.5,5.33 8.17,9.72 12.05,14.76 2.8,3.82 6.72,6.8 8.84,11.11 -6.25,-0.5 -11.31,-4.57 -16.95,-6.87 -8.36,-3.55 -16.21,-8.31 -24.84,-11.2 -0.72,9.71 -0.17,19.45 -0.33,29.17 0.12,5.64 -0.32,11.29 0.09,16.92 0.08,3.46 4.1,4.16 6.49,5.64 12.41,7.18 25.7,12.65 38.21,19.66 13.7,6.71 27.75,12.72 41.31,19.74 7.16,3.73 14.87,6.24 22.04,9.98 8.74,4.62 18.27,7.42 27.13,11.79 20.58,7.91 40.77,16.87 61.92,23.16 11.02,4.1 22.62,6.1 33.93,9.17 10.57,1.83 21.38,3.99 32.12,2.3 23.54,-3.05 46.31,-10.1 68.75,-17.59 11.42,-3.76 22.48,-8.55 33.99,-12.03 4.15,-1.26 7.92,-3.46 11.98,-4.97 8.82,-3.35 17.71,-6.58 26.23,-10.69 3.37,-1.56 7.44,-3.32 10.99,-1.2 13.21,8.17 26.11,16.9 39.88,24.11 14.06,8.42 28.72,15.83 43.75,22.38 11.33,4.35 22.97,9.18 35.35,8.73 12.48,-0.94 23.98,-6.49 34.88,-12.24 21.73,-12.95 41.53,-28.81 60.76,-45.17 7.47,-5.82 14.72,-11.94 22.03,-17.97 6.23,-5.52 13.31,-9.97 19.54,-15.51 12.65,-9.27 25.59,-18.31 39.63,-25.38 8.2,-3.16 16.28,-7.1 25.15,-7.98 9.44,-1.81 20.07,0.05 27.27,6.76 5.4,5.03 10.3,10.73 13.87,17.22 6.03,9.23 11.35,18.9 16.16,28.81 4,8.76 8.98,17.02 13.28,25.63 3.71,5.32 6.31,11.44 10.97,16.06 5.11,6.46 11.74,12.93 20.41,13.58 4.9,0.28 10.61,0.6 14.54,-2.92 -1.42,-1.04 -2.88,-2 -4.35,-2.9 3.01,0 6.03,0.23 9.03,0.66 -1.49,-3.33 -4.5,-5.56 -7.24,-7.78 -3.88,-2.59 -8.66,-3.08 -12.94,-4.71 4.66,-0.19 9.51,-0.88 14.06,0.53 5.39,2.17 10.93,4.4 15.24,8.45 0.33,-1.26 1.09,-2.68 0.15,-3.86 -4.66,-7.81 -11.48,-14.21 -19.6,-18.31 -5.01,-2.41 -10.52,-3.35 -15.88,-4.63 5.25,-2.77 11.28,-0.65 16.83,-0.17 8.42,1.78 17.38,3.97 23.93,9.94 1.8,1.59 3.95,2.7 6.16,3.68 2.1,-8.76 -2.59,-17.37 -7.86,-24.04 3.43,0.77 6.77,2.24 9.29,4.78 2.77,2.5 3.4,6.47 5.99,9.14 3.37,-6.02 8.75,-11.69 15.88,-12.75 -2.17,3.19 -5.26,5.71 -6.94,9.23 -1.89,3.69 -2.46,7.84 -2.91,11.91 4.01,-1.26 7.19,-4.13 10.92,-5.96 5.71,-3.28 11.99,-5.32 17.97,-8.01 5.75,-2.58 12.04,-4.17 18.38,-3.83 8.34,0.71 14.69,6.96 20.24,12.64 5.09,4.23 9.17,9.49 14.11,13.9 6.58,6.55 14.14,13.76 24.01,14.05 6.37,0.18 12.99,1.05 19.22,-0.66 2.17,-0.27 1.97,-2.69 2.05,-4.32 -0.12,-20.35 -0.06,-40.7 -0.03,-61.05 -0.09,-1.51 -0.11,-3.08 -0.81,-4.42 -1.93,-1.43 -4.25,0.11 -6.26,0.5 -8.68,3.02 -17.34,6.1 -26.04,9.06 -7.44,2.44 -14.45,6.15 -22.15,7.76 6.01,-6.91 12.98,-12.93 19.15,-19.7 2.95,-3.34 6.55,-6.09 9.02,-9.84 -7.42,1.09 -13.8,5.47 -21.16,6.67 1.65,-4.12 5.86,-6.12 8.66,-9.31 6.61,-7.08 13.72,-13.68 20.25,-20.82 -9.87,1.11 -18.19,7.32 -28.02,8.74 5.89,-7.63 13.21,-14.04 20.22,-20.61 1.87,-1.89 3.93,-3.72 5.08,-6.18 -0.3,-0.17 -0.89,-0.51 -1.18,-0.68 -4.86,1.94 -9.69,4.05 -14.94,4.67 5.95,-7.26 13.14,-13.42 19.65,-20.16 0.53,-0.79 1.03,-1.61 1.48,-2.45 -3.7,-0.09 -7.4,-0.14 -11.08,-0.25 4.5,-6.4 10.35,-11.64 15.6,-17.39 5.29,-6.11 10.65,-12.19 16.38,-17.89 6.15,5.92 10.16,13.64 15.76,20.05 1.42,3.47 4.92,5.24 6.96,8.27 1.83,2.48 3.67,5.1 4.09,8.25 -0.7,0.27 -2.12,0.79 -2.83,1.05 1.35,4.74 5.76,7.4 8.09,11.54 1.78,2.87 4.41,5.14 5.89,8.23 -3.77,-0.3 -7.09,-2.14 -10.31,-3.93 -0.17,0.9 -0.32,1.89 0.44,2.62 4.74,6.53 10.54,12.18 15.42,18.6 1.69,2.07 3.82,3.96 4.48,6.68 -9.33,-3.29 -17.41,-9.37 -26.96,-12.06 1.31,2.23 2.73,4.42 4.48,6.35 6.25,6.8 11.65,14.33 17.96,21.08 1.46,1.53 2.67,3.32 3.32,5.37 -6.39,-1.52 -11.79,-5.59 -18.04,-7.54 2.16,4.82 6.37,8.21 9.5,12.37 4.23,5.48 9.75,10.09 12.8,16.42 -1.54,-0.15 -3.12,-0.06 -4.53,-0.7 -8.8,-4.2 -17.43,-8.81 -26.53,-12.33 -4.93,-2.11 -9.32,-5.77 -14.88,-6.03 -0.28,24.32 -0.18,48.66 0.02,72.99 7.43,0.88 14.63,-1.42 21.88,-2.62 10.96,-1.75 21.7,-4.55 32.53,-6.93 4.88,-1.97 10.13,-2.52 15.19,-3.87 10.11,-3.51 20.77,-5.19 30.82,-8.9 4.47,-1.73 9.34,-2.28 13.66,-4.42 1.28,-1.15 0.18,-2.82 -0.82,-3.69 -1.73,-1.32 -3.67,-2.29 -5.51,-3.38 3.27,-1.39 6.33,0.19 9.26,1.63 0.17,-0.17 0.53,-0.5 0.7,-0.67 -1.54,-2.42 -3.32,-4.69 -5.33,-6.72 -3.1,-2.79 -7.08,-4.24 -10.71,-6.14 4.14,0.08 8.42,0.08 12.39,1.51 4.47,2.12 8.42,5.26 11.65,9.01 -1.23,-7.52 -6.09,-14.06 -11.47,-19.24 -4.86,-4.74 -11.5,-6.51 -17.46,-9.33 5.87,-0.56 12.01,-0.76 17.65,1.28 6.25,2.42 11.9,6.19 16.89,10.66 2.39,-7.44 -2.93,-13.77 -5.25,-20.39 6.13,1.11 8.34,7.57 11.3,12.21 2.97,-5.5 5.62,-12.63 12.51,-14.08 -1.36,3.3 -3.66,6.13 -4.8,9.52 -1.59,4.31 -1.51,8.97 -1.88,13.5 0.32,0.23 0.98,0.69 1.3,0.93 5.9,-6.24 13.37,-11.06 21.68,-13.33 4.51,-1.03 9.2,-0.77 13.78,-0.28 -4.45,2.85 -10.12,3.18 -14.06,6.91 -5.27,4.49 -11.05,9.74 -12.07,16.96 4.45,-0.5 7.56,-4.3 11.96,-4.99 4.23,-0.63 8.76,-3.16 12.94,-1.09 9.45,4.49 19.39,7.85 28.9,12.24 9.94,3.98 19.62,8.58 29.72,12.2 12.05,5.38 24.36,10.15 36.38,15.61 5.73,2.32 11.97,2.86 18.04,3.84 13,2.16 26.02,4.29 39.05,6.32 5.87,0.92 11.67,2.45 17.65,2.62 0.18,-12.26 0.31,-24.53 -0.1,-36.78 -13.08,3.87 -25.37,10.04 -38.47,13.87 5.12,-7.36 12.77,-12.37 18.34,-19.32 -4.74,-0.54 -8.91,2.31 -13.36,3.41 5.18,-7.91 13.25,-13.27 19.13,-20.57 -6.24,1.2 -12.14,3.73 -18.22,5.55 3.82,-7.83 12.71,-11.2 17.4,-18.42 -3.98,-0.53 -7.47,2.23 -11.4,2.51 3.61,-6.27 11.39,-8.91 14.07,-15.76 -2.45,0.34 -4.92,0.57 -7.38,0.64 1.66,-3.58 4.93,-5.95 7.3,-9.01 2.33,-2.97 5.12,-5.52 7.77,-8.19 2.62,-2.63 4.32,-6.36 8.02,-7.7 5.68,6.48 10.01,13.99 15.46,20.67 1.7,1.67 1.45,3.87 0.04,5.63 2.52,4.28 6.04,7.84 9.08,11.76 -1.59,0.57 -3.14,1.17 -4.69,1.76 3.5,5.84 9.56,9.84 12.55,15.94 -6.03,-1.61 -11.29,-5.11 -17.18,-7.03 1.94,4.77 6.2,7.93 9.16,12.03 2.51,3.46 5.44,6.61 7.92,10.11 -3.87,-1.03 -7.42,-2.96 -11.31,-3.91 3.51,7.46 11.22,12.02 14.32,19.8 -5.37,-2.63 -11.13,-4.41 -16.17,-7.67 -5.22,-2.5 -10.45,-4.98 -15.76,-7.24 -0.77,11.33 -0.22,22.7 -0.45,34.05 0.24,1.79 -0.61,4.94 1.91,5.35 19.67,3.86 39.61,6.29 59.32,9.97 V 1080 H 0 V 972.2 c 2.64,-0.37 5.29,-0.72 7.87,-1.38 11.03,-3.09 22.3,-5.2 33.31,-8.35 -0.78,-2.23 -3.28,-2.49 -5.17,-3.25 3.68,-0.38 7.33,0.47 11.01,0.51 -1.71,-1.92 -3.4,-3.85 -5.32,-5.55 -2.94,-2.68 -7.04,-3.39 -10.32,-5.53 -0.15,-1.68 1.91,-1.01 2.94,-1.13 4.44,0.41 9.03,0.98 13.01,3.15 3.42,1.83 6.46,4.28 9.77,6.32 -0.31,-1.82 -0.73,-3.66 -1.91,-5.12 -3.23,-4.39 -6.06,-9.27 -10.59,-12.46 -7.63,-5.18 -16.29,-9.18 -25.59,-9.92 10.62,-3.18 21.53,0.45 31.66,3.69 6.54,2.14 11.38,7.22 17.08,10.8 1.26,-9.12 -1.9,-18.87 -8.87,-24.99 7.94,0.53 12.31,8.12 16.13,14.12 3.29,-6.23 8.64,-12.12 15.97,-13.11 -2.45,3.24 -5.86,5.83 -7.33,9.72 -1.46,3.88 -3.2,8.15 -1.8,12.31 3.79,-2.62 7.26,-5.75 11.51,-7.64 4.54,-2.33 9.55,-3.43 14.48,-4.61 0.6,-6.59 0.06,-13.2 0.22,-19.79 -0.07,-7.69 0.18,-15.38 -0.16,-23.06 -7.05,1.22 -13.47,4.5 -20.22,6.7 -6.99,2.19 -13.61,5.4 -20.66,7.44 -4.97,1.43 -9.54,4.98 -14.87,4.7 0.61,-4.12 5.13,-6.04 7.61,-9 6.56,-7.02 13.78,-13.37 20.26,-20.46 -1.38,-0.09 -2.76,0.08 -4.04,0.64 -6.33,2.47 -12.83,4.47 -19.25,6.7 2.95,-4.58 7.18,-8.09 10.94,-11.96 6.17,-6.44 13.04,-12.2 18.79,-19.04 -1.24,-0.3 -2.55,-0.64 -3.77,-0.03 -7.95,2.71 -15.65,6.28 -23.86,8.11 0.58,-1.29 1.03,-2.69 2.03,-3.72 5.58,-5.77 11.72,-10.97 17.36,-16.69 2.55,-2.59 5.46,-4.96 7.07,-8.3 -6.07,0.18 -11.09,4.37 -17.15,4.85 2.07,-3.73 5.56,-6.28 8.36,-9.4 5,-4.62 9.69,-9.54 14.57,-14.27 -4.07,-0.23 -8.13,0.28 -12.17,0.65 0.9,-4.2 4.73,-6.56 7.29,-9.68 4.04,-4.94 8.43,-9.58 12.68,-14.34 4.7,-4.16 8.09,-9.57 12.9,-13.63 5.31,5.19 8.71,11.93 13.61,17.48 4.54,6.65 9.87,12.79 13.73,19.89 -1.62,0.22 -3.24,0.46 -4.86,0.7 4.32,8.48 12.91,13.92 16.93,22.51 -4.25,-1.17 -7.8,-4.08 -12.16,-4.9 4.55,7.31 10.56,13.51 16.29,19.87 2.47,2.33 4.47,5.13 5.61,8.35 -6.75,-0.57 -11.96,-5.43 -18.13,-7.71 -3.03,-1.05 -5.73,-2.84 -8.66,-4.08 -0.36,0.12 -1.09,0.36 -1.45,0.48 7.53,8.96 15.32,17.7 22.74,26.75 1.76,2.09 3.79,4.02 4.98,6.53 -1.95,1.37 -3.87,-1.04 -5.8,-1.45 -4.51,-1.28 -8.17,-4.49 -12.73,-5.61 1.29,4.01 4.59,6.8 7.14,10 4.08,4.59 7.84,9.45 11.99,13.98 1.99,2.13 3.58,4.6 4.92,7.19 -9.29,-2.64 -17.5,-7.92 -26.32,-11.7 -5.76,-2.51 -11.46,-5.14 -16.97,-8.17 -1.65,-1 -3.6,-1.15 -5.46,-1.36 -0.37,14.35 -0.44,28.73 -0.02,43.08 3.27,0.76 6.64,0.88 9.95,1.42 -3.21,0.84 -7.36,0.1 -9.71,2.88 -0.69,3.81 -0.29,7.7 -0.16,11.54 3.24,-0.32 6.41,-1.07 9.48,-2.12 5.26,-1.82 10.85,-2.31 16.18,-3.82 17.98,-5.14 36.35,-8.7 54.42,-13.46 6.66,-0.95 12.86,-3.7 19.5,-4.69 4.87,-0.81 9.44,-2.78 14.28,-3.7 12.04,-2.11 23.5,-6.61 35.57,-8.57 0.59,-3.82 0.52,-7.67 0.45,-11.51 0.12,-24.33 0.02,-48.66 0.07,-72.99 0,-4.57 -0.02,-9.14 -0.34,-13.7 -3.3,0.79 -6.61,1.59 -9.76,2.88 -8.95,3.97 -18.53,6.25 -27.45,10.3 -13.7,4.46 -26.99,10.13 -40.76,14.42 -6.31,2.04 -12.31,5.26 -18.92,6.23 1.85,-4.6 6.33,-7.09 9.49,-10.65 2.31,-2.7 5.44,-4.56 7.62,-7.37 3.25,-5.32 8.65,-8.72 12.67,-13.4 6.31,-7.35 14.12,-13.26 20.34,-20.69 -1.65,0.32 -3.3,0.68 -4.87,1.3 -8.94,3.72 -18.33,6.2 -27.42,9.48 -2.28,0.83 -4.61,1.53 -6.98,2.06 1.06,-2.21 2.67,-4.07 4.47,-5.69 3.12,-2.87 5.87,-6.1 8.91,-9.04 7.43,-6.56 13.87,-14.13 21.18,-20.8 6.1,-6.48 12.68,-12.45 18.92,-18.78 -3.08,-1.27 -6.02,0.89 -8.91,1.74 -14.53,5.13 -28.87,10.84 -43.53,15.56 1.46,-3.34 4.23,-5.8 6.79,-8.29 10.23,-9.43 19.58,-19.75 29.73,-29.25 4.46,-4.49 9.4,-8.66 12.88,-14 -8.63,2.26 -16.86,5.8 -25.27,8.72 -1.95,0.63 -4.01,0.77 -6.04,0.98 2.83,-5.64 8.28,-9.15 12.43,-13.7 3.62,-4 7.59,-7.64 11.62,-11.2 4.95,-4.68 9.66,-9.6 14.42,-14.46 -7.11,-2.47 -15,2.49 -22.07,-0.13 5.21,-5.82 10.47,-11.59 15.72,-17.37 m 222.01,208.92 c -10.54,3.1 -20.59,7.57 -30.95,11.17 0.57,0.91 0.79,2.21 1.87,2.72 4.98,2.76 10.3,4.88 15.18,7.84 5.4,3.45 11.53,5.54 16.87,9.09 3.8,1.92 7.45,4.63 11.78,5.14 0.53,-5.35 0.2,-10.72 0.27,-16.07 -0.14,-8.29 0.29,-16.6 -0.33,-24.88 -5.13,0.8 -9.75,3.49 -14.69,4.99 M 96.6,944.58 c -1.14,1.11 -1.19,2.82 -1.57,4.29 4.31,-0.44 8.55,-1.38 12.79,-2.19 0.41,-3.49 0.28,-7.01 0.05,-10.5 -4.08,2.33 -7.9,5.12 -11.27,8.4 z"
   id="path94" />
      
      <path
   fill="#792a79"
   stroke="#792a79"
   stroke-width="0.5"
   d="m 418.69,629.77 c 2.76,-1.63 5.75,0.02 8.42,0.99 25.63,10.2 51.57,19.66 77.12,30.08 -11.85,-1.1 -23.44,-3.91 -35.19,-5.68 -12.77,-2.45 -25.65,-4.19 -38.4,-6.68 -4.45,-0.76 -8.98,-2.02 -13.51,-1.21 -14.68,2.45 -29.46,4.22 -44.14,6.61 -3.7,0.67 -7.46,0.87 -11.2,1.08 18.85,-8.64 37.95,-16.75 56.9,-25.19 z"
   id="path98" />
      
      <path
   fill="#7a4372"
   stroke="#7a4372"
   stroke-width="0.5"
   d="m 1827.37,668.93 c 2.36,-0.39 4.72,-0.76 7.12,-1.01 -0.85,0.88 -1.69,1.75 -2.53,2.63 -1.55,-0.56 -3.07,-1.12 -4.59,-1.62 z"
   id="path102" />
      <path
   fill="#4f1150"
   stroke="#4f1150"
   stroke-width="0.5"
   d="m 314.7,677.03 c 4.84,1 9.43,2.91 14.25,3.98 11.03,2.42 21.78,5.91 32.44,9.61 11.9,4.38 23.72,9.43 34.04,16.91 28.71,16.21 56.72,33.6 85.61,49.48 2.62,1.34 4.98,3.09 7.2,5.01 -5.05,-1.44 -9.77,-3.75 -14.6,-5.77 -28.08,-11.71 -56.57,-22.43 -85.22,-32.66 -4.79,-1.41 -9.27,-3.83 -14.23,-4.65 2.89,9.79 8.59,18.46 11.67,28.17 -5.56,-2.13 -10.47,-5.58 -15.84,-8.1 -7.59,-3.55 -15.32,-6.82 -23.11,-9.93 -4.57,-1.44 -5.98,-6.56 -9.38,-9.49 -4.53,-4.9 -8.76,-10.07 -12.97,-15.25 -5.11,-5.9 -10.36,-11.73 -14.82,-18.14 3.63,0 7.26,0.1 10.89,0.04 -1.71,-3.25 -4.25,-5.95 -5.93,-9.21 z"
   id="path104" />
      <path
   fill="#5f225d"
   stroke="#5f225d"
   stroke-width="0.5"
   d="m 1871.91,680.14 c 16.1,3.52 32.09,7.62 48.09,11.6 v 45.68 c -6.52,-3.17 -13.23,-5.93 -20.08,-8.27 -6.56,-2.25 -13.46,-3.15 -20.12,-5.02 -4.37,-4.48 -8.36,-9.34 -12,-14.43 4.58,1.64 8.88,3.97 13.33,5.97 -5.5,-8.57 -13.1,-15.53 -19.09,-23.73 6.68,2.08 12.6,6.02 19.2,8.35 -4.23,-7.08 -10.53,-12.6 -15.2,-19.36 2.75,1.1 5.49,2.23 8.3,3.23 -0.76,-1.4 -1.49,-2.77 -2.43,-4.02 z"
   id="path106" />
      <path
   fill="#2b092a"
   stroke="#2b092a"
   stroke-width="0.5"
   d="m 0,688.16 c 36.68,-0.16 73.41,-0.54 110.04,1.71 38.1,1.8 76.14,5.11 113.94,10.25 -4.03,3.56 -8,7.2 -11.62,11.2 -4.15,4.55 -9.6,8.06 -12.43,13.7 2.03,-0.21 4.09,-0.35 6.04,-0.98 8.41,-2.92 16.64,-6.46 25.27,-8.72 -3.48,5.34 -8.42,9.51 -12.88,14 -10.15,9.5 -19.5,19.82 -29.73,29.25 -2.56,2.49 -5.33,4.95 -6.79,8.29 14.66,-4.72 29,-10.43 43.53,-15.56 2.89,-0.85 5.83,-3.01 8.91,-1.74 -6.24,6.33 -12.82,12.3 -18.92,18.78 -7.31,6.67 -13.75,14.24 -21.18,20.8 -3.04,2.94 -5.79,6.17 -8.91,9.04 -1.8,1.62 -3.41,3.48 -4.47,5.69 2.37,-0.53 4.7,-1.23 6.98,-2.06 9.09,-3.28 18.48,-5.76 27.42,-9.48 1.57,-0.62 3.22,-0.98 4.87,-1.3 -6.22,7.43 -14.03,13.34 -20.34,20.69 -4.02,4.68 -9.42,8.08 -12.67,13.4 -2.18,2.81 -5.31,4.67 -7.62,7.37 -3.16,3.56 -7.64,6.05 -9.49,10.65 6.61,-0.97 12.61,-4.19 18.92,-6.23 13.77,-4.29 27.06,-9.96 40.76,-14.42 8.92,-4.05 18.5,-6.33 27.45,-10.3 3.15,-1.29 6.46,-2.09 9.76,-2.88 0.32,4.56 0.34,9.13 0.34,13.7 -0.05,24.33 0.05,48.66 -0.07,72.99 0.07,3.84 0.14,7.69 -0.45,11.51 -12.07,1.96 -23.53,6.46 -35.57,8.57 -4.84,0.92 -9.41,2.89 -14.28,3.7 -6.64,0.99 -12.84,3.74 -19.5,4.69 -18.07,4.76 -36.44,8.32 -54.42,13.46 -5.33,1.51 -10.92,2 -16.18,3.82 -3.07,1.05 -6.24,1.8 -9.48,2.12 -0.13,-3.84 -0.53,-7.73 0.16,-11.54 2.35,-2.78 6.5,-2.04 9.71,-2.88 -3.31,-0.54 -6.68,-0.66 -9.95,-1.42 -0.42,-14.35 -0.35,-28.73 0.02,-43.08 1.86,0.21 3.81,0.36 5.46,1.36 5.51,3.03 11.21,5.66 16.97,8.17 8.82,3.78 17.03,9.06 26.32,11.7 -1.34,-2.59 -2.93,-5.06 -4.92,-7.19 -4.15,-4.53 -7.91,-9.39 -11.99,-13.98 -2.55,-3.2 -5.85,-5.99 -7.14,-10 4.56,1.12 8.22,4.33 12.73,5.61 1.93,0.41 3.85,2.82 5.8,1.45 -1.19,-2.51 -3.22,-4.44 -4.98,-6.53 -7.42,-9.05 -15.21,-17.79 -22.74,-26.75 0.36,-0.12 1.09,-0.36 1.45,-0.48 2.93,1.24 5.63,3.03 8.66,4.08 6.17,2.28 11.38,7.14 18.13,7.71 -1.14,-3.22 -3.14,-6.02 -5.61,-8.35 -5.73,-6.36 -11.74,-12.56 -16.29,-19.87 4.36,0.82 7.91,3.73 12.16,4.9 -4.02,-8.59 -12.61,-14.03 -16.93,-22.51 1.62,-0.24 3.24,-0.48 4.86,-0.7 -3.86,-7.1 -9.19,-13.24 -13.73,-19.89 -4.9,-5.55 -8.3,-12.29 -13.61,-17.48 -4.81,4.06 -8.2,9.47 -12.9,13.63 -4.25,4.76 -8.64,9.4 -12.68,14.34 -2.56,3.12 -6.39,5.48 -7.29,9.68 4.04,-0.37 8.1,-0.88 12.17,-0.65 -4.88,4.73 -9.57,9.65 -14.57,14.27 -2.8,3.12 -6.29,5.67 -8.36,9.4 6.06,-0.48 11.08,-4.67 17.15,-4.85 -1.61,3.34 -4.52,5.71 -7.07,8.3 -5.64,5.72 -11.78,10.92 -17.36,16.69 -1,1.03 -1.45,2.43 -2.03,3.72 8.21,-1.83 15.91,-5.4 23.86,-8.11 1.22,-0.61 2.53,-0.27 3.77,0.03 -5.75,6.84 -12.62,12.6 -18.79,19.04 -3.76,3.87 -7.99,7.38 -10.94,11.96 6.42,-2.23 12.92,-4.23 19.25,-6.7 1.28,-0.56 2.66,-0.73 4.04,-0.64 -6.48,7.09 -13.7,13.44 -20.26,20.46 -2.48,2.96 -7,4.88 -7.61,9 5.33,0.28 9.9,-3.27 14.87,-4.7 7.05,-2.04 13.67,-5.25 20.66,-7.44 6.75,-2.2 13.17,-5.48 20.22,-6.7 0.34,7.68 0.09,15.37 0.16,23.06 -0.16,6.59 0.38,13.2 -0.22,19.79 -4.93,1.18 -9.94,2.28 -14.48,4.61 -4.25,1.89 -7.72,5.02 -11.51,7.64 -1.4,-4.16 0.34,-8.43 1.8,-12.31 1.47,-3.89 4.88,-6.48 7.33,-9.72 -7.33,0.99 -12.68,6.88 -15.97,13.11 -3.82,-6 -8.19,-13.59 -16.13,-14.12 6.97,6.12 10.13,15.87 8.87,24.99 -5.7,-3.58 -10.54,-8.66 -17.08,-10.8 -10.13,-3.24 -21.04,-6.87 -31.66,-3.69 9.3,0.74 17.96,4.74 25.59,9.92 4.53,3.19 7.36,8.07 10.59,12.46 1.18,1.46 1.6,3.3 1.91,5.12 -3.31,-2.04 -6.35,-4.49 -9.77,-6.32 -3.98,-2.17 -8.57,-2.74 -13.01,-3.15 -1.03,0.12 -3.09,-0.55 -2.94,1.13 3.28,2.14 7.38,2.85 10.32,5.53 1.92,1.7 3.61,3.63 5.32,5.55 -3.68,-0.04 -7.33,-0.89 -11.01,-0.51 1.89,0.76 4.39,1.02 5.17,3.25 -11.01,3.15 -22.28,5.26 -33.31,8.35 -2.58,0.66 -5.23,1.01 -7.87,1.38 z"
   id="path108" />
      <path
   fill="#792a79"
   stroke="#792a79"
   stroke-width="0.5"
   d="m 975.83,720.88 c 18.36,-10.92 36.56,-22.11 55.09,-32.74 34.62,14.45 69.79,27.62 105.62,38.74 -4.35,1.82 -9.04,0.56 -13.53,0.19 -12.7,-1.13 -25.29,-3.15 -37.99,-4.24 -6.45,-0.48 -12.82,-2.17 -19.31,-1.7 9.43,6.89 20.62,11 30.26,17.64 -10.7,-1.4 -21.34,-3.24 -32.02,-4.76 -12.93,-1.99 -25.94,-3.62 -38.76,-6.21 -19.26,-5.92 -40.17,-4.7 -59.31,1.05 -1.84,0.63 -3.79,0.6 -5.67,0.29 5.1,-2.96 10.57,-5.22 15.62,-8.26 z"
   id="path110" />
      
      <path
   fill="#4b174b"
   stroke="#4b174b"
   stroke-width="0.5"
   d="m 318.08,715.86 c 5.93,1.63 11.26,4.82 16.75,7.51 1.4,0.8 2.77,1.68 4.14,2.56 -6.38,-1.68 -12.74,-3.53 -18.81,-6.11 -0.75,-1.3 -1.42,-2.63 -2.08,-3.96 z"
   id="path114" />
      <path
   fill="#5e235c"
   stroke="#5e235c"
   stroke-width="0.5"
   d="m 1851.8,715.86 c 5.69,2.09 10.9,5.23 16.5,7.54 -5.56,1.06 -11.16,1.82 -16.73,2.82 -0.12,-3.46 -0.19,-6.93 0.23,-10.36 z"
   id="path116" />
      
      <path
   fill="#4f1150"
   stroke="#4f1150"
   stroke-width="0.5"
   d="m 1868.3,723.4 c 5.25,2.3 10.13,5.5 15.74,6.93 -1.32,-2.13 -2.67,-4.25 -4.24,-6.2 6.66,1.87 13.56,2.77 20.12,5.02 6.85,2.34 13.56,5.1 20.08,8.27 v 22.72 c -3.99,-4.15 -9.3,-6.69 -14.66,-8.56 -5.57,-1.86 -11.49,-3.27 -17.38,-2.38 -11.72,1.72 -23,5.48 -34.16,9.34 -1.07,-0.95 -2.36,-1.89 -2.13,-3.5 -0.27,-9.6 0.02,-19.22 -0.1,-28.82 5.57,-1 11.17,-1.76 16.73,-2.82 z"
   id="path120" />
      <path
   fill="#762d76"
   stroke="#762d76"
   stroke-width="0.5"
   d="m 1140.38,728.19 c 7.56,1.66 15.33,1.89 22.94,3.35 3.49,0.7 7.25,0.67 10.47,2.42 -2.07,0.35 -4.11,0.67 -6.18,0.79 -7.78,-1.2 -15.69,-1.84 -23.24,-4.18 -1.58,-0.36 -2.81,-1.4 -3.99,-2.38 z"
   id="path122" />
      <path
   fill="#4f1150"
   stroke="#4f1150"
   stroke-width="0.5"
   d="m 1799.26,756.23 c 14.97,-9.73 29.8,-19.9 45.99,-27.54 0.06,9.46 0.08,18.91 0.03,28.37 -0.21,1.6 0.25,3.91 -1.55,4.77 -8,4.28 -16.68,7.09 -24.82,11.09 -19.51,8.36 -38.24,18.36 -57.24,27.78 -4.53,2.46 -8.82,5.38 -13.58,7.38 -4.55,1.87 -8.45,5.09 -13.12,6.65 -2.86,-1.62 -4.47,-5 -6.84,-7.3 3.52,-2.58 7.01,-5.2 10.46,-7.87 20.05,-14.69 40.02,-29.49 60.67,-43.33 z"
   id="path124" />
      
      
      
      
      
      
      
      
      
      
      
      
      
      
      
      
      
      
      
      
      <path
   fill="#4f1150"
   stroke="#4f1150"
   stroke-width="0.5"
   d="m 1408.01,775.82 c 3.25,0.36 6.52,0.77 9.71,1.59 18.33,4.44 35.62,12.47 51.75,22.16 8.34,4.81 16.36,10.17 24.1,15.91 5.08,3.73 10.71,6.62 16.09,9.89 16.45,9.67 33.03,19.12 49.95,27.94 9.05,4.55 18.09,9.28 27.78,12.35 -3.78,0.63 -7.62,0.87 -11.42,0.51 -13.29,-1.07 -26.58,-2.9 -39.34,-6.83 -7.62,-1.89 -14.62,-5.49 -21.77,-8.61 -5.6,-6.41 -9.61,-14.13 -15.76,-20.05 -5.73,5.7 -11.09,11.78 -16.38,17.89 -1.69,-1.07 -3.25,-2.35 -4.19,-4.13 -5.15,-8.74 -11.21,-16.91 -16.17,-25.76 -0.76,-0.8 -1.47,-3.06 -2.86,-2.16 -3.26,4.05 -5.18,9.02 -8.54,13.03 -5.2,-14.35 -11.88,-28.71 -23.18,-39.33 -5.72,-5.9 -12.79,-10.19 -19.77,-14.4 z"
   id="path132" />
      <path
   fill="#a2569a"
   stroke="#a2569a"
   stroke-width="0.5"
   d="m 1721.03,798.83 c 3.58,1.34 6.98,3.08 10.53,4.53 -0.98,-1.31 -1.96,-2.59 -2.95,-3.84 3.31,-0.35 6.65,-0.37 9.98,0.04 -3.45,2.67 -6.94,5.29 -10.46,7.87 -2.49,-2.77 -4.89,-5.61 -7.1,-8.6 z"
   id="path168" />
      
      
      
      <path
   fill="#4f124f"
   stroke="#4f124f"
   stroke-width="0.5"
   d="m 1709.25,828.83 c -1.43,-8.36 -1.3,-16.97 -0.53,-25.38 0.35,6.19 0.02,12.39 0.27,18.59 4.99,-3.81 10.12,-7.46 14.83,-11.63 3.17,1.48 6.32,3.02 9.36,4.79 -2.17,2.71 -5.65,3.73 -8.49,5.51 -5.17,2.68 -9.87,6.3 -15.44,8.12 z"
   id="path176" />
      <path
   fill="#a4549d"
   stroke="#a4549d"
   stroke-width="0.5"
   d="m 1708.72,803.45 c 5.1,2.17 10.04,4.69 15.1,6.96 -4.71,4.17 -9.84,7.82 -14.83,11.63 -0.25,-6.2 0.08,-12.4 -0.27,-18.59 z"
   id="path178" />
      
      
      
      
      
      
      <path
   fill="#4f134e"
   stroke="#4f134e"
   stroke-width="0.5"
   d="m 1675.02,845.82 c 9.97,-6.16 19.97,-12.3 28.97,-19.87 -0.4,2.37 1.01,6.01 -1.69,7.32 -8.57,4.85 -16.9,10.11 -25.64,14.65 0.03,-0.54 0.09,-1.63 0.12,-2.18 -0.44,0.02 -1.32,0.06 -1.76,0.08 z"
   id="path192" />
      
      
      
      <path
   fill="#2b092a"
   stroke="#2b092a"
   stroke-width="0.5"
   d="m 454.06,877.08 c 4.94,-1.5 9.56,-4.19 14.69,-4.99 0.62,8.28 0.19,16.59 0.33,24.88 -0.07,5.35 0.26,10.72 -0.27,16.07 -4.33,-0.51 -7.98,-3.22 -11.78,-5.14 -5.34,-3.55 -11.47,-5.64 -16.87,-9.09 -4.88,-2.96 -10.2,-5.08 -15.18,-7.84 -1.08,-0.51 -1.3,-1.81 -1.87,-2.72 10.36,-3.6 20.41,-8.07 30.95,-11.17 z"
   id="path200" /><path
   fill="#2b092a"
   stroke="#2b092a"
   stroke-width="0.5"
   d="m 374.19,718.94 c 4.96,0.82 9.44,3.24 14.23,4.65 28.65,10.23 57.14,20.95 85.22,32.66 4.83,2.02 9.55,4.33 14.6,5.77 5.6,3.38 11.54,6.14 17.09,9.59 15.44,9.3 30.98,18.45 46.32,27.9 24.33,14.44 48.45,29.22 72.97,43.33 7.19,4.45 14.62,8.51 21.96,12.73 30.94,17.66 62.36,34.49 94.56,49.74 1.08,0.5 2.17,1 3.28,1.51 1.24,0.57 2.5,1.15 3.76,1.74 2.09,0.94 4.2,1.87 6.31,2.78 3.97,1.69 7.94,3.35 11.87,5.15 0.43,0.19 1.3,0.57 1.74,0.76 l 1.09,0.45 c 5.37,2.07 10.67,4.34 16.09,6.3 2.94,1.07 5.85,2.26 8.81,3.31 10.5,3.68 21.05,7.26 31.85,9.98 2.66,0.66 5.31,1.38 7.98,2.04 7.78,1.93 15.67,3.4 23.6,4.54 24.42,3.71 49.28,1.22 73.33,-3.72 36.17,-7.56 71.03,-20.16 105.33,-33.71 74.67,-29.94 146.62,-66.22 221.41,-95.88 9.62,-3.79 19.28,-7.48 29.03,-10.94 5.65,-2.07 11.36,-3.94 17.06,-5.87 0.07,-6.58 0.12,-13.16 0.01,-19.74 -7.46,2.13 -14.41,5.83 -22.04,7.38 3.2,-4.04 7.28,-7.27 10.46,-11.33 -2.8,0.86 -5.57,1.8 -8.35,2.67 3.39,-4.84 8.1,-8.49 12.24,-12.65 -4.02,1.27 -7.96,2.77 -12.03,3.85 3.17,-3.87 7.05,-7.06 10.23,-10.91 -1.88,0.3 -3.75,0.63 -5.6,0.95 2.46,-2.82 5.1,-5.47 7.53,-8.31 -1.35,-0.29 -2.68,-0.56 -4,-0.82 4.34,-4.78 8.67,-9.56 13.03,-14.31 3.31,3.55 5.94,7.65 8.88,11.51 1.46,1.62 1.18,3.95 2.08,5.83 1.57,2.29 3.45,4.36 5.04,6.66 -1.28,-0.28 -2.55,-0.55 -3.8,-0.81 2.13,3.32 4.93,6.15 6.98,9.53 -3.27,-1.03 -6.44,-2.34 -9.61,-3.6 2.86,4.43 6.67,8.12 9.58,12.52 -2.17,-0.72 -4.32,-1.45 -6.47,-2.15 2.55,3.9 5.92,7.2 8.36,11.19 -6.55,-1.64 -11.99,-6.03 -18.52,-7.68 -0.13,6.2 -0.33,12.42 0.06,18.62 5.13,-1.12 10.09,-2.9 15.15,-4.32 10.95,-3.23 22.06,-5.86 33.21,-8.28 -1.25,-1.59 -2.62,-3.06 -4.1,-4.4 0.94,-0.08 2.81,-0.25 3.74,-0.33 -2.59,-3.39 -6.74,-4.72 -10.75,-5.5 5.82,-0.84 11.62,0.78 16.2,4.46 -2.61,-7.68 -10.32,-11.48 -17.55,-13.67 8.27,-1.51 15.99,2.32 22.79,6.56 0.74,-4.6 -1.64,-8.54 -4.42,-11.91 3.77,0.44 5.94,3.68 8.05,6.47 2.6,-2.97 5.68,-5.66 9.72,-6.29 -3.9,2.47 -6.5,6.4 -6.64,11.08 6.69,-3.68 14.17,-7.65 22.07,-5.78 -7.87,1.83 -15.25,6.73 -18.27,14.48 4.34,-4.07 10.16,-6.26 16.15,-5.56 -3.72,1.21 -7.29,2.88 -10.22,5.51 8.36,0.82 16.8,-0.04 25.14,1.15 6.98,4.21 14.05,8.5 19.77,14.4 11.3,10.62 17.98,24.98 23.18,39.33 3.36,-4.01 5.28,-8.98 8.54,-13.03 1.39,-0.9 2.1,1.36 2.86,2.16 4.96,8.85 11.02,17.02 16.17,25.76 0.94,1.78 2.5,3.06 4.19,4.13 -5.25,5.75 -11.1,10.99 -15.6,17.39 3.68,0.11 7.38,0.16 11.08,0.25 -0.45,0.84 -0.95,1.66 -1.48,2.45 -6.51,6.74 -13.7,12.9 -19.65,20.16 5.25,-0.62 10.08,-2.73 14.94,-4.67 0.29,0.17 0.88,0.51 1.18,0.68 -1.15,2.46 -3.21,4.29 -5.08,6.18 -7.01,6.57 -14.33,12.98 -20.22,20.61 9.83,-1.42 18.15,-7.63 28.02,-8.74 -6.53,7.14 -13.64,13.74 -20.25,20.82 -2.8,3.19 -7.01,5.19 -8.66,9.31 7.36,-1.2 13.74,-5.58 21.16,-6.67 -2.47,3.75 -6.07,6.5 -9.02,9.84 -6.17,6.77 -13.14,12.79 -19.15,19.7 7.7,-1.61 14.71,-5.32 22.15,-7.76 8.7,-2.96 17.36,-6.04 26.04,-9.06 2.01,-0.39 4.33,-1.93 6.26,-0.5 0.7,1.34 0.72,2.91 0.81,4.42 -0.03,20.35 -0.09,40.7 0.03,61.05 -0.08,1.63 0.12,4.05 -2.05,4.32 -6.23,1.71 -12.85,0.84 -19.22,0.66 -9.87,-0.29 -17.43,-7.5 -24.01,-14.05 -4.94,-4.41 -9.02,-9.67 -14.11,-13.9 -5.55,-5.68 -11.9,-11.93 -20.24,-12.64 -6.34,-0.34 -12.63,1.25 -18.38,3.83 -5.98,2.69 -12.26,4.73 -17.97,8.01 -3.73,1.83 -6.91,4.7 -10.92,5.96 0.45,-4.07 1.02,-8.22 2.91,-11.91 1.68,-3.52 4.77,-6.04 6.94,-9.23 -7.13,1.06 -12.51,6.73 -15.88,12.75 -2.59,-2.67 -3.22,-6.64 -5.99,-9.14 -2.52,-2.54 -5.86,-4.01 -9.29,-4.78 5.27,6.67 9.96,15.28 7.86,24.04 -2.21,-0.98 -4.36,-2.09 -6.16,-3.68 -6.55,-5.97 -15.51,-8.16 -23.93,-9.94 -5.55,-0.48 -11.58,-2.6 -16.83,0.17 5.36,1.28 10.87,2.22 15.88,4.63 8.12,4.1 14.94,10.5 19.6,18.31 0.94,1.18 0.18,2.6 -0.15,3.86 -4.31,-4.05 -9.85,-6.28 -15.24,-8.45 -4.55,-1.41 -9.4,-0.72 -14.06,-0.53 4.28,1.63 9.06,2.12 12.94,4.71 2.74,2.22 5.75,4.45 7.24,7.78 -3,-0.43 -6.02,-0.66 -9.03,-0.66 1.47,0.9 2.93,1.86 4.35,2.9 -3.93,3.52 -9.64,3.2 -14.54,2.92 -8.67,-0.65 -15.3,-7.12 -20.41,-13.58 -4.66,-4.62 -7.26,-10.74 -10.97,-16.06 -4.3,-8.61 -9.28,-16.87 -13.28,-25.63 -4.81,-9.91 -10.13,-19.58 -16.16,-28.81 -3.57,-6.49 -8.47,-12.19 -13.87,-17.22 -7.2,-6.71 -17.83,-8.57 -27.27,-6.76 -8.87,0.88 -16.95,4.82 -25.15,7.98 -14.04,7.07 -26.98,16.11 -39.63,25.38 -6.23,5.54 -13.31,9.99 -19.54,15.51 -7.31,6.03 -14.56,12.15 -22.03,17.97 -19.23,16.36 -39.03,32.22 -60.76,45.17 -10.9,5.75 -22.4,11.3 -34.88,12.24 -12.38,0.45 -24.02,-4.38 -35.35,-8.73 -15.03,-6.55 -29.69,-13.96 -43.75,-22.38 -13.77,-7.21 -26.67,-15.94 -39.88,-24.11 -3.55,-2.12 -7.62,-0.36 -10.99,1.2 -8.52,4.11 -17.41,7.34 -26.23,10.69 -4.06,1.51 -7.83,3.71 -11.98,4.97 -11.51,3.48 -22.57,8.27 -33.99,12.03 -22.44,7.49 -45.21,14.54 -68.75,17.59 -10.74,1.69 -21.55,-0.47 -32.12,-2.3 -11.31,-3.07 -22.91,-5.07 -33.93,-9.17 -21.15,-6.29 -41.34,-15.25 -61.92,-23.16 -8.86,-4.37 -18.39,-7.17 -27.13,-11.79 -7.17,-3.74 -14.88,-6.25 -22.04,-9.98 -13.56,-7.02 -27.61,-13.03 -41.31,-19.74 -12.51,-7.01 -25.8,-12.48 -38.21,-19.66 -2.39,-1.48 -6.41,-2.18 -6.49,-5.64 -0.41,-5.63 0.03,-11.28 -0.09,-16.92 0.16,-9.72 -0.39,-19.46 0.33,-29.17 8.63,2.89 16.48,7.65 24.84,11.2 5.64,2.3 10.7,6.37 16.95,6.87 -2.12,-4.31 -6.04,-7.29 -8.84,-11.11 -3.88,-5.04 -8.55,-9.43 -12.05,-14.76 5.69,1.07 10.46,4.64 16.07,5.85 -6.53,-10.25 -16.1,-18.21 -22.35,-28.69 7.85,1.91 14.46,7.08 22.31,8.89 -2.83,-7.35 -10.5,-11.5 -13.19,-19.04 0.5,-0.29 1.49,-0.87 1.99,-1.17 1.37,0.54 2.74,1.1 4.12,1.64 -0.73,-2.84 -1.91,-5.57 -3.84,-7.8 -3.13,-4.57 -8.69,-6.95 -10.96,-12.16 0.88,-0.53 1.76,-1.06 2.66,-1.57 -1,-2.53 -2.03,-5.08 -3.64,-7.29 -6.04,-8.32 -12.66,-16.19 -18.47,-24.68 -2.39,1.84 -4.54,3.96 -6.42,6.32 -7.29,8.87 -16.04,16.47 -22.51,26.01 3.36,-0.25 6.72,-0.32 10.08,-0.19 -5.74,7.46 -14,12.67 -19.22,20.5 4.94,-1.06 9.59,-3.1 14.45,-4.46 -2.03,3.81 -5.5,6.46 -8.44,9.51 -4.63,4.95 -9.94,9.27 -14.13,14.62 1.46,0.17 2.97,0.3 4.39,-0.23 6.32,-2.03 12.13,-5.93 18.95,-6.18 -0.85,1.42 -1.72,2.87 -2.93,4.02 -6.67,6.37 -12.75,13.34 -19.7,19.41 -0.68,0.74 -1.18,1.6 -1.52,2.58 6.58,0.67 11.57,-5.06 18.15,-4.95 -3.15,4.72 -7.54,8.44 -11.51,12.44 -4.63,3.34 -7.74,8.42 -12.55,11.49 -7.09,-2.15 -13.46,-6.2 -19.7,-10.1 -1.96,-1.35 -4.45,-0.71 -6.61,-0.34 -8.58,2.16 -17.13,4.44 -25.79,6.26 0.91,-1.97 2.2,-3.73 3.93,-5.04 7.06,-6.36 16.37,-9.24 25.41,-11.46 -5.35,-0.29 -10.79,-1.34 -16.08,-0.1 -10.56,1.65 -20.3,6.58 -28.97,12.67 -1.29,-7.73 3.18,-14.9 8.17,-20.38 -6.9,-1.04 -10.99,6.05 -14.35,10.91 -2.45,-2.38 -4.17,-5.34 -6.18,-8.05 -2.52,-3.32 -6.5,-5.34 -10.67,-5.41 1.99,2.31 4.53,4.25 5.91,7.04 2.33,5.45 4.7,11.17 3.85,17.25 -3.21,-0.68 -5.61,-3.04 -8.21,-4.85 -6.45,-4.88 -14.38,-7.29 -22.21,-8.85 -5.1,-0.94 -10.58,-1.97 -15.56,0.08 9.24,1.99 18.07,6.16 25.17,12.44 3.73,3.76 7.79,7.75 8.85,13.17 -4.13,-0.57 -7.05,-3.81 -10.8,-5.32 -4.45,-2.11 -9.47,-2.42 -14.32,-2.45 4.45,4.12 11.83,5.12 14.41,11.27 -3.27,0.29 -6.82,-0.13 -9.76,1.62 -2.21,1.23 -4.63,1.96 -7.11,2.37 -5.77,0.97 -11.31,2.87 -17.01,4.13 -0.21,-32.56 -0.16,-65.13 -0.04,-97.69 4.16,-0.72 7.79,1.42 11.27,3.35 20.53,9.89 41.08,19.75 61.81,29.18 3.03,1.63 6.14,3.35 9.68,3.46 -3.65,-7.05 -9.43,-12.66 -14.39,-18.76 -5.78,-7.14 -11.76,-14.12 -17.93,-20.92 -3.21,-4.78 -7.66,-8.59 -10.59,-13.56 6.23,0.95 11.45,4.74 17.26,6.92 5.94,3.26 12.08,6.24 18.61,8.16 -4.92,-5.43 -9.24,-11.37 -14.15,-16.8 -3.42,-3.94 -6.14,-8.44 -9.8,-12.16 -8.06,-9.01 -15.72,-18.36 -23.37,-27.72 -0.79,-1 -1.31,-2.18 -1.84,-3.31 1.66,0.27 3.32,0.64 4.82,1.44 7.47,3.9 15.34,6.97 22.7,11.1 7.52,3.15 14.56,7.69 22.59,9.44 -3.42,-6.01 -8.68,-10.6 -12.84,-16.05 -5.11,-5.9 -10.24,-11.79 -14.99,-17.98 -3.35,-4.29 -7.4,-7.97 -10.92,-12.1 6.07,2.58 12.43,4.43 18.81,6.11 -1.37,-0.88 -2.74,-1.76 -4.14,-2.56 0.74,-0.19 2.22,-0.55 2.97,-0.74 -0.1,-1.02 -0.19,-2.03 -0.27,-3.04 3.4,2.93 4.81,8.05 9.38,9.49 7.79,3.11 15.52,6.38 23.11,9.93 5.37,2.52 10.28,5.97 15.84,8.1 -3.08,-9.71 -8.78,-18.38 -11.67,-28.17 z"
   id="path118" />
      
      
      
      
      
      
      
      
      
      
      
      
      
      
      
      
      
      <path
   fill="#290a2b"
   stroke="#290a2b"
   stroke-width="0.5"
   d="m 96.6,944.58 c 3.37,-3.28 7.19,-6.07 11.27,-8.4 0.23,3.49 0.36,7.01 -0.05,10.5 -4.24,0.81 -8.48,1.75 -12.79,2.19 0.38,-1.47 0.43,-3.18 1.57,-4.29 z"
   id="path236" />
      <path
   fill="#ebafd5"
   stroke="#ebafd5"
   stroke-width="0.5"
   d="m -77.333864,90.413615 c 19.23,-5.73 40.97,-4.76 58.789996,4.91 6.29,3.49 11.9799998,8.529995 14.8699998,15.239995 0.84,2.66 1.18,5.45 1.79,8.18 12.3000042,0.37 24.7100042,-0.91 36.9300042,1.15 6.37,0.79 13.56,3.68 15.45,10.46 8.22,1.68 13.75,8.85 21.53,11.49 8.24,1.33 17.2,0.72 24.54,5.37 3.24,1.55 5.660004,4.24 7.270004,7.41 -10.600004,0.71 -21.250004,0.11 -31.870004,0.3 -112.65,0 -225.309996,0 -337.959996,0.01 -7.36,-0.1 -14.73,0.21 -22.06,-0.33 3.41,-3.88 8.73,-4.83 13.42,-6.33 9.38,-2.13 19.08,-2.7 28.68,-2.23 3.65,0.23 7.27,1.28 10.95,0.76 2.06,-2.3 3.19,-5.43 5.93,-7.11 12.59,-9.18 28.97,-10.51 44.05,-9.92 4.91,-0.04 9.59,1.73 14.48,1.89 2.49,-7.1 9.1,-11.42 15.22,-15.17 15.22,-8.59 33.16,-10.74 50.38,-10.54 1.64,-0.22 3.77,0.3 4.94,-1.25 6.089996,-6.689995 13.959996,-11.749995 22.669996,-14.289995 z"
   id="path8-3" />
   <path
   fill="#2b092a"
   stroke="#2b092a"
   stroke-width="0.5"
   d="m 1825.03,668.45 c 7.89,-8.15 15.32,-16.73 22.97,-25.12 6.32,8.49 12.5,17.08 18.93,25.5 -1.55,0 -3.14,-0.01 -4.62,0.03 3.1,3.83 6.18,7.71 9.6,11.28 0.94,1.25 1.67,2.62 2.43,4.02 -2.81,-1 -5.55,-2.13 -8.3,-3.23 4.67,6.76 10.97,12.28 15.2,19.36 -6.6,-2.33 -12.52,-6.27 -19.2,-8.35 5.99,8.2 13.59,15.16 19.09,23.73 -4.45,-2 -8.75,-4.33 -13.33,-5.97 3.64,5.09 7.63,9.95 12,14.43 1.57,1.95 2.92,4.07 4.24,6.2 -5.61,-1.43 -10.49,-4.63 -15.74,-6.93 -5.6,-2.31 -10.81,-5.45 -16.5,-7.54 -0.42,3.43 -0.35,6.9 -0.23,10.36 0.12,9.6 -0.17,19.22 0.1,28.82 -0.23,1.61 1.06,2.55 2.13,3.5 11.16,-3.86 22.44,-7.62 34.16,-9.34 5.89,-0.89 11.81,0.52 17.38,2.38 5.36,1.87 10.67,4.41 14.66,8.56 v 266.15 c -19.71,-3.68 -39.65,-6.11 -59.32,-9.97 -2.52,-0.41 -1.67,-3.56 -1.91,-5.35 0.23,-11.35 -0.32,-22.72 0.45,-34.05 5.31,2.26 10.54,4.74 15.76,7.24 5.04,3.26 10.8,5.04 16.17,7.67 -3.1,-7.78 -10.81,-12.34 -14.32,-19.8 3.89,0.95 7.44,2.88 11.31,3.91 -2.48,-3.5 -5.41,-6.65 -7.92,-10.11 -2.96,-4.1 -7.22,-7.26 -9.16,-12.03 5.89,1.92 11.15,5.42 17.18,7.03 -2.99,-6.1 -9.05,-10.1 -12.55,-15.94 1.55,-0.59 3.1,-1.19 4.69,-1.76 -3.04,-3.92 -6.56,-7.48 -9.08,-11.76 1.41,-1.76 1.66,-3.96 -0.04,-5.63 -5.45,-6.68 -9.78,-14.19 -15.46,-20.67 -3.7,1.34 -5.4,5.07 -8.02,7.7 -2.65,2.67 -5.44,5.22 -7.77,8.19 -2.37,3.06 -5.64,5.43 -7.3,9.01 2.46,-0.07 4.93,-0.3 7.38,-0.64 -2.68,6.85 -10.46,9.49 -14.07,15.76 3.93,-0.28 7.42,-3.04 11.4,-2.51 -4.69,7.22 -13.58,10.59 -17.4,18.42 6.08,-1.82 11.98,-4.35 18.22,-5.55 -5.88,7.3 -13.95,12.66 -19.13,20.57 4.45,-1.1 8.62,-3.95 13.36,-3.41 -5.57,6.95 -13.22,11.96 -18.34,19.32 13.1,-3.83 25.39,-10 38.47,-13.87 0.41,12.25 0.28,24.52 0.1,36.78 -5.98,-0.17 -11.78,-1.7 -17.65,-2.62 -13.03,-2.03 -26.05,-4.16 -39.05,-6.32 -6.07,-0.98 -12.31,-1.52 -18.04,-3.84 -12.02,-5.46 -24.33,-10.23 -36.38,-15.61 -10.1,-3.62 -19.78,-8.22 -29.72,-12.2 -9.51,-4.39 -19.45,-7.75 -28.9,-12.24 -4.18,-2.07 -8.71,0.46 -12.94,1.09 -4.4,0.69 -7.51,4.49 -11.96,4.99 1.02,-7.22 6.8,-12.47 12.07,-16.96 3.94,-3.73 9.61,-4.06 14.06,-6.91 -4.58,-0.49 -9.27,-0.75 -13.78,0.28 -8.31,2.27 -15.78,7.09 -21.68,13.33 -0.32,-0.24 -0.98,-0.7 -1.3,-0.93 0.37,-4.53 0.29,-9.19 1.88,-13.5 1.14,-3.39 3.44,-6.22 4.8,-9.52 -6.89,1.45 -9.54,8.58 -12.51,14.08 -2.96,-4.64 -5.17,-11.1 -11.3,-12.21 2.32,6.62 7.64,12.95 5.25,20.39 -4.99,-4.47 -10.64,-8.24 -16.89,-10.66 -5.64,-2.04 -11.78,-1.84 -17.65,-1.28 5.96,2.82 12.6,4.59 17.46,9.33 5.38,5.18 10.24,11.72 11.47,19.24 -3.23,-3.75 -7.18,-6.89 -11.65,-9.01 -3.97,-1.43 -8.25,-1.43 -12.39,-1.51 3.63,1.9 7.61,3.35 10.71,6.14 2.01,2.03 3.79,4.3 5.33,6.72 -0.17,0.17 -0.53,0.5 -0.7,0.67 -2.93,-1.44 -5.99,-3.02 -9.26,-1.63 1.84,1.09 3.78,2.06 5.51,3.38 1,0.87 2.1,2.54 0.82,3.69 -4.32,2.14 -9.19,2.69 -13.66,4.42 -10.05,3.71 -20.71,5.39 -30.82,8.9 -5.06,1.35 -10.31,1.9 -15.19,3.87 -10.83,2.38 -21.57,5.18 -32.53,6.93 -7.25,1.2 -14.45,3.5 -21.88,2.62 -0.2,-24.33 -0.3,-48.67 -0.02,-72.99 5.56,0.26 9.95,3.92 14.88,6.03 9.1,3.52 17.73,8.13 26.53,12.33 1.41,0.64 2.99,0.55 4.53,0.7 -3.05,-6.33 -8.57,-10.94 -12.8,-16.42 -3.13,-4.16 -7.34,-7.55 -9.5,-12.37 6.25,1.95 11.65,6.02 18.04,7.54 -0.65,-2.05 -1.86,-3.84 -3.32,-5.37 -6.31,-6.75 -11.71,-14.28 -17.96,-21.08 -1.75,-1.93 -3.17,-4.12 -4.48,-6.35 9.55,2.69 17.63,8.77 26.96,12.06 -0.66,-2.72 -2.79,-4.61 -4.48,-6.68 -4.88,-6.42 -10.68,-12.07 -15.42,-18.6 -0.76,-0.73 -0.61,-1.72 -0.44,-2.62 3.22,1.79 6.54,3.63 10.31,3.93 -1.48,-3.09 -4.11,-5.36 -5.89,-8.23 -2.33,-4.14 -6.74,-6.8 -8.09,-11.54 0.71,-0.26 2.13,-0.78 2.83,-1.05 -0.42,-3.15 -2.26,-5.77 -4.09,-8.25 -2.04,-3.03 -5.54,-4.8 -6.96,-8.27 7.15,3.12 14.15,6.72 21.77,8.61 12.76,3.93 26.05,5.76 39.34,6.83 3.8,0.36 7.64,0.12 11.42,-0.51 9.92,2.83 20.36,4.45 30.65,2.85 20.49,-2.88 39.29,-12.41 56.98,-22.69 0.44,-0.02 1.32,-0.06 1.76,-0.08 -0.03,0.55 -0.09,1.64 -0.12,2.18 8.74,-4.54 17.07,-9.8 25.64,-14.65 2.7,-1.31 1.29,-4.95 1.69,-7.32 -0.08,-7.08 0,-14.16 -0.06,-21.23 -9.84,3.4 -19.51,7.28 -29.43,10.45 4.91,-5.61 10.49,-10.58 15.6,-16 -4.21,1.36 -8.33,3.01 -12.58,4.21 1.21,-1.37 2.47,-2.7 3.81,-3.96 3.83,-3.87 8.01,-7.46 11.25,-11.87 -4.53,0.8 -8.68,2.87 -13.14,3.87 3.44,-5.72 9.55,-9.16 13.55,-14.47 -3.34,0.87 -6.58,2.06 -9.92,2.88 3.67,-4.08 7.98,-7.54 11.3,-11.94 -1.86,-0.08 -3.69,-0.14 -5.51,-0.19 5.55,-6.48 11.16,-12.93 17.19,-18.96 5.07,5.92 9.61,12.31 13.97,18.77 -0.59,0.26 -1.77,0.77 -2.36,1.03 2.73,3.58 5.86,6.86 8.47,10.55 -1.81,-0.38 -3.6,-0.75 -5.38,-1.12 3.25,4.65 7.41,8.59 10.41,13.43 -5,-1.46 -9.42,-4.26 -14.2,-6.21 3.34,5.19 7.87,9.46 11.65,14.33 0.99,1.25 1.97,2.53 2.95,3.84 -3.55,-1.45 -6.95,-3.19 -10.53,-4.53 2.21,2.99 4.61,5.83 7.1,8.6 2.37,2.3 3.98,5.68 6.84,7.3 4.67,-1.56 8.57,-4.78 13.12,-6.65 4.76,-2 9.05,-4.92 13.58,-7.38 19,-9.42 37.73,-19.42 57.24,-27.78 8.14,-4 16.82,-6.81 24.82,-11.09 1.8,-0.86 1.34,-3.17 1.55,-4.77 0.05,-9.46 0.03,-18.91 -0.03,-28.37 0.09,-3.69 0.09,-7.38 -0.19,-11.05 -12.97,3.7 -25.31,9.34 -38.2,13.31 5.9,-7.7 13.92,-13.45 20.12,-20.9 -5.69,1.66 -11.14,4.02 -16.8,5.75 7.06,-7.5 14.52,-14.6 21.85,-21.82 -7.04,1.18 -13.27,4.99 -20.26,6.34 6.16,-7.22 13.41,-13.42 20.08,-20.17 -4.42,1.27 -8.67,3.08 -13.14,4.14 3.86,-5.08 8.76,-9.23 13.25,-13.74 0.84,-0.88 1.68,-1.75 2.53,-2.63 -2.4,0.25 -4.76,0.62 -7.12,1.01 -0.81,-0.16 -1.59,-0.32 -2.34,-0.48 m -115.78,160.38 c 5.57,-1.82 10.27,-5.44 15.44,-8.12 2.84,-1.78 6.32,-2.8 8.49,-5.51 -3.04,-1.77 -6.19,-3.31 -9.36,-4.79 -5.06,-2.27 -10,-4.79 -15.1,-6.96 -0.77,8.41 -0.9,17.02 0.53,25.38 z"
   id="path100" /></g>
</svg>
